<svg width="129" height="124" viewBox="0 0 129 124" fill="none" xmlns="http://www.w3.org/2000/svg">
<path d="M64.2586 93.2114L64.2579 93.2114C63.6349 93.2181 62.6392 93.0735 61.7054 92.6175C60.7761 92.1638 59.9223 91.41 59.5382 90.2C58.502 86.936 55.2874 81.3813 53.2579 78.3905C52.2571 76.9156 51.1034 74.6638 50.1401 72.4234C49.1753 70.1798 48.4136 67.9756 48.1835 66.595L48.1835 66.595L48.1827 66.5907C47.9089 65.1081 48.0696 63.6229 48.1817 63.0777L48.1922 63.0265L48.1814 62.9754C47.9889 62.0676 47.2995 60.6987 46.5559 59.4061C45.3745 57.3526 44.5309 55.1189 44.6581 52.8C45.0987 44.7688 48.1707 31.9117 58.2253 24.7962C72.9792 14.355 89.5081 18.0041 97.3033 28.0588C99.2376 30.5537 100.313 33.8655 100.84 37.4866C101.367 41.1055 101.343 45.0132 101.094 48.6821C100.845 52.3501 100.372 55.7708 100.003 58.4173L99.988 58.5242C99.8103 59.7996 99.6577 60.8947 99.5694 61.7417C99.524 62.177 99.495 62.552 99.4888 62.8553C99.4827 63.1504 99.4969 63.4058 99.5535 63.5853C99.6356 63.8453 99.7247 64.2491 99.8366 64.7784C99.8531 64.8563 99.8701 64.9368 99.8875 65.0196C99.9873 65.4935 100.103 66.045 100.244 66.6498C100.576 68.0713 101.045 69.7955 101.772 71.5399C103.223 75.0252 105.713 78.626 110.205 80.0297C111.236 80.3517 111.909 80.9811 112.292 81.8373C112.679 82.7031 112.776 83.8192 112.607 85.1133C112.268 87.7024 110.873 90.9205 108.797 94.0438C106.723 97.1636 103.983 100.167 100.98 102.33C97.9743 104.496 94.7288 105.804 91.6339 105.582C90.7738 105.521 89.8814 104.904 88.8972 103.801C87.92 102.707 86.8948 101.184 85.7605 99.4019C85.4164 98.8615 85.0627 98.2979 84.6979 97.7166C82.6652 94.4775 80.2868 90.6877 77.2987 87.2775L77.1522 87.1104L76.9691 87.2362C73.4948 89.6226 70.6418 91.1159 68.4912 92.0132C66.3324 92.9138 64.8989 93.2064 64.2586 93.2114ZM59.2999 90.2756C60.1197 92.858 62.9486 93.4755 64.2605 93.4614L77.1106 87.4423C80.0844 90.836 82.4509 94.6066 84.484 97.8461C87.248 102.25 89.3959 105.672 91.6161 105.832C104.32 106.743 119.061 82.5353 110.28 79.7911C102.759 77.4409 100.936 68.7834 100.132 64.9682C99.9974 64.3285 99.8914 63.8249 99.7919 63.51C99.6211 62.9689 99.875 61.1463 100.236 58.5547C101.339 50.6433 103.44 35.5657 97.5009 27.9057C89.6169 17.7364 72.9348 14.0801 58.0809 24.5921C47.9328 31.7739 44.8505 44.7278 44.4085 52.7863C44.2775 55.1742 45.1466 57.4578 46.3392 59.5308C47.0849 60.827 47.7537 62.1635 47.9369 63.0273C47.8198 63.5964 47.656 65.115 47.9369 66.6361C48.4074 69.4594 51.0244 75.5441 53.0511 78.5309C55.0778 81.5176 58.2752 87.0476 59.2999 90.2756Z" fill="url(#paint0_linear_2055_306)" stroke="url(#paint1_linear_2055_306)" stroke-width="0.5"/>
<path d="M42.3467 68.3842L40.9131 57.8428C40.8232 57.1815 41.1174 56.54 41.6261 56.0795C42.1355 55.6183 42.8357 55.3619 43.5126 55.4535C48.0788 56.0713 57.434 56.2131 72.782 51.63C73.8505 51.3109 74.9516 52.0351 75.0647 53.1377L76.1509 63.7224C76.233 64.5222 75.7571 65.2757 75.0002 65.5314C66.892 68.2708 61.3181 68.5723 58.9982 68.5474C58.3536 68.5405 57.7994 68.1156 57.5732 67.4892L56.6529 64.9405C56.3309 64.0488 55.4846 63.4547 54.5366 63.4547H53.9535C52.7109 63.4547 51.7035 64.462 51.7035 65.7047V68.2499C51.7035 68.9399 51.3016 69.5394 50.6712 69.72C49.153 70.1551 46.3748 70.6486 43.3856 69.6951C42.8226 69.5155 42.4301 68.9974 42.3467 68.3842Z" fill="url(#paint2_linear_2055_306)" stroke="url(#paint3_linear_2055_306)" stroke-width="0.5"/>
<line x1="48.4901" y1="62.2401" x2="0.211268" y2="112.644" stroke="url(#paint4_linear_2055_306)" stroke-width="0.5" stroke-dasharray="2 2"/>
<line x1="64.6025" y1="60.6331" x2="2.69725" y2="116.186" stroke="url(#paint5_linear_2055_306)" stroke-width="0.5" stroke-dasharray="2 2"/>
<path fill-rule="evenodd" clip-rule="evenodd" d="M13 8H37.0833V11.1819H16.1816V28.7763H13V8ZM16.1816 95.2232H13V116H37.0833V112.817H16.1816V95.2232ZM96.9149 112.817V116H121V95.2232H117.817V112.817H96.9149ZM117.817 28.7763H121V8H37.0833L96.9149 8V11.1819H117.817V28.7763Z" fill="white" fill-opacity="0.15"/>
<defs>
<linearGradient id="paint0_linear_2055_306" x1="20.7759" y1="84.6316" x2="86.9339" y2="67.8078" gradientUnits="userSpaceOnUse">
<stop stop-color="#686A70"/>
<stop offset="1" stop-color="#07090F"/>
</linearGradient>
<linearGradient id="paint1_linear_2055_306" x1="45.9964" y1="84.6874" x2="82.8025" y2="73.8486" gradientUnits="userSpaceOnUse">
<stop stop-color="#92949A"/>
<stop offset="0.856289" stop-color="#121317"/>
</linearGradient>
<linearGradient id="paint2_linear_2055_306" x1="56.3126" y1="45.6728" x2="59.0928" y2="69.3497" gradientUnits="userSpaceOnUse">
<stop stop-color="white"/>
<stop offset="1" stop-color="#828282"/>
</linearGradient>
<linearGradient id="paint3_linear_2055_306" x1="56.3824" y1="52.8317" x2="59.7181" y2="69.4056" gradientUnits="userSpaceOnUse">
<stop stop-color="white"/>
<stop offset="1" stop-color="white" stop-opacity="0"/>
</linearGradient>
<linearGradient id="paint4_linear_2055_306" x1="48.9587" y1="62.0454" x2="-0.905896" y2="113.486" gradientUnits="userSpaceOnUse">
<stop stop-color="white"/>
<stop offset="1" stop-color="white" stop-opacity="0"/>
</linearGradient>
<linearGradient id="paint5_linear_2055_306" x1="65.1892" y1="60.4218" x2="1.51684" y2="118.325" gradientUnits="userSpaceOnUse">
<stop stop-color="white"/>
<stop offset="1" stop-color="white" stop-opacity="0"/>
</linearGradient>
</defs>
</svg>
