<svg width="124" height="124" viewBox="0 0 124 124" fill="none" xmlns="http://www.w3.org/2000/svg">
<path d="M51.2716 88.9003L51.1966 88.8005H51.0718C50.4841 88.8005 48.3784 88.7461 45.9764 88.3991C43.5651 88.0507 40.8978 87.413 39.1571 86.2685C38.5259 85.8536 38.062 84.9421 37.7566 83.6492C37.4543 82.3699 37.3207 80.7763 37.3009 79.076C37.2613 75.6795 37.6765 71.9023 38.0725 69.4599C38.1099 69.2727 38.1442 68.9808 38.1267 68.6966C38.1179 68.553 38.0953 68.402 38.0478 68.264C38.0006 68.127 37.9229 67.9855 37.7923 67.8843C37.7337 67.8389 37.6614 67.81 37.604 67.7902C37.541 67.7685 37.4674 67.7484 37.3892 67.7292C37.2879 67.7044 37.1664 67.6779 37.0354 67.6494C36.9668 67.6345 36.8956 67.619 36.8234 67.6029C36.3924 67.5068 35.8854 67.3797 35.4317 67.1752C34.9755 66.9696 34.6042 66.6993 34.4075 66.3353C34.217 65.9829 34.1657 65.4962 34.4449 64.7964C35.0312 63.3274 36.3263 61.3659 37.6082 59.5018C37.8147 59.2015 38.0208 58.9038 38.2231 58.6116C38.6446 58.0026 39.0496 57.4177 39.4071 56.8832C39.9343 56.0948 40.3702 55.3989 40.6089 54.8826C41.5452 52.8572 42.0187 49.9384 42.1359 48.0886C42.1477 47.903 42.2602 47.4924 42.4989 46.8894C42.7331 46.2974 43.0783 45.5459 43.5335 44.6909C44.4438 42.9808 45.7897 40.8654 47.5578 38.7934C51.0973 34.6457 56.3029 30.701 63.0739 30.4799C69.8889 30.2573 77.2285 32.4394 82.9054 36.4015C88.5804 40.3623 92.5695 46.0823 92.75 52.9334C92.7488 58.7359 89.6656 64.1759 86.4855 68.6038C85.3599 70.171 84.2292 71.6023 83.2223 72.8769C82.807 73.4027 82.4127 73.9018 82.0485 74.3728C81.4274 75.1761 80.8927 75.8992 80.4973 76.5275C80.1062 77.149 79.8324 77.7064 79.7631 78.1733C79.5172 79.8303 79.3734 81.5261 79.3631 83.0546C79.3529 84.579 79.4752 85.9533 79.7705 86.9589C79.7779 86.984 79.7814 87.0564 79.6976 87.2024C79.6167 87.3433 79.4745 87.5168 79.2651 87.7201C78.8476 88.1255 78.2024 88.6125 77.3731 89.1539C75.7176 90.2348 73.3666 91.5079 70.7406 92.7482C65.4802 95.2326 59.1695 97.5599 55.1814 97.9572C54.9144 97.9837 54.7221 97.9352 54.5722 97.8409C54.4186 97.7443 54.2852 97.5843 54.1662 97.3466C53.9226 96.8597 53.7789 96.133 53.609 95.2178C53.601 95.1748 53.593 95.1315 53.5849 95.0878C53.2545 93.3039 52.8203 90.9595 51.2716 88.9003Z" fill="url(#paint0_linear_2055_219)" stroke="url(#paint1_linear_2055_219)" stroke-width="0.5"/>
<path fill-rule="evenodd" clip-rule="evenodd" d="M8 8H32.0833V11.1816H11.1816V28.7764H8V8ZM11.1816 95.2233H8V116H32.0833V112.817H11.1816V95.2233ZM91.9149 112.817V116H116V95.2233H112.817V112.817H91.9149ZM112.817 28.7764H116V8H32.0833L91.9149 8V11.1816H112.817V28.7764Z" fill="white" fill-opacity="0.15"/>
<path fill-rule="evenodd" clip-rule="evenodd" d="M43.6683 42.4521C36.0604 42.167 29.442 42.9837 24.6061 44.6788C19.7015 46.3979 17.0053 48.8699 16.4495 51.6442C16.0867 53.4549 16.6028 55.4835 18.1083 57.6752C19.6171 59.8717 22.0573 62.1308 25.3111 64.299C31.813 68.6315 41.327 72.4439 52.3106 74.6444C62.5468 76.6952 72.1487 76.9631 79.6198 75.779L79.0951 73.0828L86.9948 75.8008L80.691 81.2831L80.1429 78.4668C72.2729 79.7292 62.2999 79.4367 51.773 77.3277C40.5276 75.0747 30.6592 71.1511 23.7937 66.5763C20.3638 64.2909 17.624 61.8035 15.8526 59.2246C14.0778 56.6409 13.2135 53.8653 13.7662 51.1067C14.6133 46.8789 18.5079 43.9165 23.7009 42.0962C28.9625 40.2519 35.9486 39.4243 43.7708 39.7174L45.5442 39.717L43.6683 42.4521Z" fill="url(#paint2_linear_2055_219)"/>
<path fill-rule="evenodd" clip-rule="evenodd" d="M60.6456 18.8472C57.9696 17.9783 55.1125 18.5149 52.3404 19.978C49.5735 21.4383 46.7851 23.8711 44.1173 27.0128C38.777 33.3014 33.7354 42.6481 30.1933 53.5563C26.6512 64.4644 25.24 74.99 25.8671 83.2163C26.1803 87.3259 27.0075 90.9328 28.3886 93.7401C29.7723 96.5526 31.7692 98.6654 34.4451 99.5343C37.9846 100.684 41.8192 99.3833 45.4235 96.7003L44.4594 93.9694L43.7895 94.5052C40.5026 96.9518 37.6078 97.684 35.2903 96.9315C33.534 96.3611 32.0179 94.9178 30.8441 92.532C29.6677 90.1409 28.8929 86.9071 28.5957 83.0083C28.0019 75.2178 29.3365 65.0556 32.7961 54.4014C36.2557 43.7472 41.1459 34.7396 46.2032 28.7841C48.7342 25.8037 51.261 23.642 53.6177 22.3982C55.9692 21.1571 58.044 20.8797 59.8004 21.4501C60.7276 21.7511 61.5892 22.3012 62.3666 23.0982L60.1668 25.0286L68.5726 27.8789L66.8382 19.1742L64.4298 21.2876C63.3624 20.1599 62.1059 19.3214 60.6456 18.8472Z" fill="url(#paint3_linear_2055_219)"/>
<defs>
<linearGradient id="paint0_linear_2055_219" x1="18.663" y1="52.7982" x2="69.7518" y2="73.9809" gradientUnits="userSpaceOnUse">
<stop stop-color="#686A70"/>
<stop offset="1" stop-color="#07090F"/>
</linearGradient>
<linearGradient id="paint1_linear_2055_219" x1="30.5" y1="59" x2="64.8783" y2="72.2152" gradientUnits="userSpaceOnUse">
<stop offset="0.04273" stop-color="#92959A"/>
<stop offset="1" stop-color="#07090F"/>
</linearGradient>
<linearGradient id="paint2_linear_2055_219" x1="45.6081" y1="38.6709" x2="35.5499" y2="71.2321" gradientUnits="userSpaceOnUse">
<stop stop-color="white" stop-opacity="0"/>
<stop offset="1" stop-color="white"/>
</linearGradient>
<linearGradient id="paint3_linear_2055_219" x1="28.4772" y1="67.4256" x2="47.754" y2="93.8644" gradientUnits="userSpaceOnUse">
<stop stop-color="white"/>
<stop offset="1" stop-color="white" stop-opacity="0"/>
</linearGradient>
</defs>
</svg>
