<svg width="124" height="124" viewBox="0 0 124 124" fill="none" xmlns="http://www.w3.org/2000/svg">
<path d="M42.6963 68C42.6963 68 39.0686 76 34.7153 76C32.5782 76 20.4463 68 20.4463 68C20.4463 68 32.5782 60 34.7153 60C39.0686 60 42.6963 68 42.6963 68Z" fill="white" fill-opacity="0.35"/>
<path d="M37.8852 68C37.8852 68 41.78 74 44.6037 74C47.8386 74 52.3176 68 52.3176 68C52.3176 68 47.4275 62 44.6037 62C41.78 62 37.8852 68 37.8852 68Z" fill="white" fill-opacity="0.35"/>
<path d="M52.3176 68C52.3176 68 57.5554 76 61.3528 76C65.7961 76 75.7703 68 75.7703 68C75.7703 68 66.0657 60 61.3528 60C57.5554 60 52.3176 68 52.3176 68Z" fill="white" fill-opacity="0.35"/>
<path d="M55.324 68C55.324 68 62.0417 77 65.547 77C69.6485 77 76.9727 68 76.9727 68C76.9727 68 69.8973 59 65.547 59C62.0417 59 55.324 68 55.324 68Z" fill="white" fill-opacity="0.35"/>
<path d="M42.6962 68C42.6962 68 47.3398 77 50.2131 77C55.3537 77 56.1158 70 61.9395 68C56.369 65 54.5175 59 50.2131 59C47.3398 59 42.6962 68 42.6962 68Z" fill="white" fill-opacity="0.35"/>
<path d="M42.6958 68C42.6958 68 38.9701 73 34.4992 73C32.3043 73 19.8445 68 19.8445 68C19.8445 68 32.3043 63 34.4992 63C38.9701 63 42.6958 68 42.6958 68Z" fill="white" fill-opacity="0.35"/>
<path d="M42.6958 68C42.6958 68 46.4101 73 50.8671 73C53.0552 73 55.3242 68 55.3242 68C55.3242 68 53.0552 63 50.8671 63C46.4101 63 42.6958 68 42.6958 68Z" fill="white" fill-opacity="0.35"/>
<path d="M22.8514 68C22.8514 68 19.1256 70 14.6547 70C12.4598 70 0 68 0 68C0 68 12.4598 66 14.6547 66C19.1256 66 22.8514 68 22.8514 68Z" fill="white" fill-opacity="0.35"/>
<path d="M75.1689 68C75.1689 68 77.424 71 80.1301 71C81.4585 71 89 68 89 68C89 68 81.4585 65 80.1301 65C77.424 65 75.1689 68 75.1689 68Z" fill="white" fill-opacity="0.35"/>
<path d="M22.8514 68C22.8514 68 19.1256 69 14.6547 69C12.4598 69 0 68 0 68C0 68 12.4598 67 14.6547 67C19.1256 67 22.8514 68 22.8514 68Z" fill="white" fill-opacity="0.35"/>
<path d="M75.1689 68C75.1689 68 77.424 69 80.1301 69C81.4585 69 89 68 89 68C89 68 81.4585 67 80.1301 67C77.424 67 75.1689 68 75.1689 68Z" fill="white" fill-opacity="0.35"/>
<path d="M61.9392 68C61.9392 68 64.1942 69 66.9003 69C68.2288 69 75.7703 68 75.7703 68C75.7703 68 68.2288 67 66.9003 67C64.1942 67 61.9392 68 61.9392 68Z" fill="white" fill-opacity="0.35"/>
<path d="M37.8851 68C37.8851 68 33.2471 74 29.5998 74C27.2695 74 19.2432 68 19.2432 68C19.2432 68 27.2695 62 29.5998 62C33.2471 62 37.8851 68 37.8851 68Z" fill="white" fill-opacity="0.35"/>
<path fill-rule="evenodd" clip-rule="evenodd" d="M8 8H32.0833V11.1819H11.1816V28.7763H8V8ZM11.1816 95.2232H8V116H32.0833V112.817H11.1816V95.2232ZM91.9149 112.817V116H116V95.2232H112.817V112.817H91.9149ZM112.817 28.7763H116V8H32.0833L91.9149 8V11.1819H112.817V28.7763Z" fill="white" fill-opacity="0.15"/>
<path d="M68.2318 80.588L68.2311 80.5877C67.7 80.3856 66.9017 79.9302 66.2602 79.2309C65.6222 78.5354 65.1495 77.6114 65.2268 76.4574C65.4368 73.3221 64.5551 67.5029 63.8257 64.2705C63.4665 62.6785 63.2369 60.372 63.1658 58.1383C63.0946 55.901 63.1834 53.7671 63.4493 52.5145L63.4493 52.5145L63.4502 52.5103C63.7128 51.1568 64.3464 49.9459 64.6237 49.5199L64.6522 49.4762L64.6608 49.4247C64.7912 48.6429 64.6887 47.3828 64.514 46.1318C64.1858 43.7828 64.2091 41.3921 65.1916 39.2895C68.3212 32.592 75.2071 22.8941 86.0103 20.2322C102.088 16.2706 114.956 24.9183 118.234 36.0982C119.047 38.8704 118.855 42.0525 118.092 45.317C117.329 48.5792 116 51.9038 114.558 54.95C113.116 57.9955 111.567 60.7549 110.365 62.8894L110.317 62.9755C109.737 64.0041 109.24 64.8877 108.881 65.5813C108.696 65.9376 108.545 66.2485 108.438 66.5059C108.334 66.7558 108.259 66.9812 108.247 67.1571C108.23 67.4052 108.171 67.7784 108.089 68.2679C108.077 68.3398 108.064 68.414 108.051 68.4904C107.978 68.9283 107.892 69.4381 107.81 70.0018C107.616 71.3262 107.438 72.9559 107.473 74.6893C107.544 78.1523 108.463 82.0667 111.832 84.7752C112.598 85.3916 112.959 86.1489 112.999 87.0016C113.038 87.8649 112.749 88.8459 112.172 89.8913C111.017 91.983 108.751 94.2591 105.934 96.227C103.121 98.1927 99.7796 99.8356 96.495 100.675C93.2066 101.515 90.0047 101.542 87.4446 100.318C86.7392 99.9812 86.1869 99.1625 85.717 97.8931C85.2506 96.6336 84.8867 94.9918 84.516 93.0915C84.4036 92.5152 84.2907 91.916 84.1743 91.2978C83.5255 87.853 82.766 83.8204 81.3587 79.9077L81.2835 79.6986L81.0671 79.7487C77.3042 80.6202 74.3709 80.938 72.2368 80.9827C70.094 81.0276 68.776 80.7969 68.2318 80.588ZM64.9774 76.4407C64.8114 78.9188 67.0181 80.3937 68.1422 80.8214L81.1235 79.9923C82.5234 83.8846 83.2788 87.8948 83.9278 91.3401C84.8102 96.0241 85.4958 99.664 87.3368 100.544C97.8707 105.579 118.561 89.8649 111.988 84.5804C106.359 80.0547 107.705 72.0569 108.298 68.5323C108.397 67.9413 108.476 67.4761 108.496 67.1742C108.532 66.6552 109.359 65.1852 110.536 63.0951C114.128 56.7143 120.974 44.5539 118.474 36.0279C115.155 24.709 102.147 15.9985 85.9505 19.9894C75.0373 22.6785 68.1064 32.4613 64.9652 39.1836C63.9527 41.3503 63.9355 43.7979 64.2664 46.1664C64.4415 47.42 64.5375 48.6444 64.4142 49.3835C64.1236 49.8299 63.4749 51.0707 63.2047 52.4626C62.66 55.0293 62.8536 61.0979 63.5819 64.3255C64.3101 67.5531 65.1849 73.343 64.9774 76.4407Z" fill="url(#paint0_linear_2055_324)" stroke="url(#paint1_linear_2055_324)" stroke-width="0.5"/>
<defs>
<linearGradient id="paint0_linear_2055_324" x1="33.9993" y1="58.7141" x2="96.0852" y2="66.5319" gradientUnits="userSpaceOnUse">
<stop stop-color="#686A70"/>
<stop offset="1" stop-color="#07090F"/>
</linearGradient>
<linearGradient id="paint1_linear_2055_324" x1="55.4993" y1="67.2141" x2="90.5357" y2="70.3014" gradientUnits="userSpaceOnUse">
<stop stop-color="#92949A"/>
<stop offset="0.856289" stop-color="#07090F"/>
</linearGradient>
</defs>
</svg>
