<svg width="124" height="124" viewBox="0 0 124 124" fill="none" xmlns="http://www.w3.org/2000/svg">
<path fill-rule="evenodd" clip-rule="evenodd" d="M8 8H32.0833V11.1821H11.1816V28.7763H8V8ZM11.1816 95.2232H8V116H32.0833V112.817H11.1816V95.2232ZM91.9149 112.817V116H116V95.2232H112.817V112.817H91.9149ZM112.817 28.7763H116V8H32.0833L91.9149 8V11.1821H112.817V28.7763Z" fill="white" fill-opacity="0.15"/>
<g filter="url(#filter0_b_2055_254)">
<path d="M50.3963 47.9269C50.8122 54.7304 51.1992 59.9052 50.8122 66.6434C50.8122 67.1594 50.3334 69.2719 49.1956 68.6651C46.1095 66.5632 46.4004 63.8627 43.6858 60.107C41.3893 56.6456 37.6135 56.3343 36.2188 57.9929C35.6028 58.7254 35.8911 59.781 36.2287 60.6766C36.7613 62.0896 36.9423 62.8703 37.4323 64.1688C38.1162 65.9814 40.0475 68.7525 41.1857 71.791C42.7695 76.0191 42.1133 81.2204 44.8816 86.2961C47.6499 91.3718 49.1338 91.4568 57.8711 94.7441C64.861 97.374 66.0539 101.78 67.2938 103.654L91.0001 86.2961C89.0254 84.4859 88.9912 83.5316 87.9078 81.2204C86.8244 78.9091 86.2124 71.9732 86.2847 69.5897C86.3698 66.7808 85.3964 64.8967 84.2752 62.3791C83.6616 61.0014 80.2068 57.4492 79.8175 56.2259C78.9856 54.0921 76.3037 52.2889 74.4484 53.2308C73.8932 53.5127 73.351 53.2282 73.1359 52.9551C72.8535 52.5968 72.7435 52.3489 71.9745 51.0749C70.2652 48.2428 66.6384 50.4178 65.8444 49.3062C63.7338 45.7142 59.3231 48.7806 58.9707 46.4081C58.5901 41.4607 57.7934 39.1892 57.5666 36.752C57.4882 35.9089 57.2497 35.365 57.0188 33.0958C56.7171 29.7777 55.0692 27.1017 52.6582 27.6445C49.6187 28.3282 50.1733 32.3906 49.9402 36.4656C49.7071 40.5406 50.1018 43.11 50.3963 47.9269Z" fill="url(#paint0_linear_2055_254)"/>
<path d="M49.0549 68.8717L49.066 68.8793L49.078 68.8857C49.4339 69.0755 49.7701 69.0611 50.0552 68.8931C50.3202 68.7369 50.5139 68.4639 50.6536 68.1883C50.9307 67.6415 51.06 66.9528 51.0621 66.6511C51.4199 60.4155 51.1163 55.5131 50.7404 49.4461C50.7093 48.9431 50.6776 48.4321 50.6458 47.9117C50.5664 46.6126 50.48 45.4791 50.4006 44.4375C50.1844 41.6014 50.0202 39.4459 50.1898 36.4799C50.2312 35.7559 50.2479 35.0299 50.2642 34.328C50.2709 34.0378 50.2775 33.7517 50.2857 33.4716C50.3139 32.5081 50.3612 31.6117 50.4933 30.8247C50.6257 30.0365 50.8401 29.3789 51.1887 28.8817C51.5318 28.3924 52.0134 28.0458 52.7131 27.8884L52.7131 27.8884C53.7963 27.6446 54.7189 28.1111 55.4285 29.0709C56.144 30.0387 56.6216 31.4886 56.7698 33.1184L56.7701 33.1211C56.8863 34.2633 57.0047 34.9735 57.1042 35.5047C57.1267 35.6252 57.148 35.7353 57.1679 35.838C57.2365 36.1922 57.2884 36.4602 57.3177 36.7752C57.4083 37.7483 57.5889 38.6977 57.7953 39.7822C57.8505 40.0722 57.9075 40.3718 57.9652 40.6841C58.2392 42.1695 58.532 43.965 58.7214 46.4273L58.7221 46.4361L58.7234 46.4449C58.7739 46.7849 58.9018 47.0517 59.1087 47.2479C59.3125 47.4411 59.5711 47.5448 59.8461 47.6015C60.1199 47.658 60.4272 47.6713 60.7445 47.6706C60.9252 47.6702 61.1211 47.6649 61.3201 47.6596C61.464 47.6558 61.6095 47.6519 61.7519 47.6498C62.452 47.6394 63.1744 47.6683 63.8457 47.9072C64.5079 48.1428 65.1319 48.587 65.6289 49.4329L65.6345 49.4425L65.641 49.4515C65.9199 49.842 66.4208 49.9066 66.8986 49.9032C67.1487 49.9015 67.4228 49.88 67.703 49.8567C67.7282 49.8546 67.7535 49.8525 67.7788 49.8504C68.0382 49.8287 68.3046 49.8065 68.5766 49.7951C69.7702 49.7454 70.9791 49.9095 71.7605 51.204C72.0091 51.616 72.1898 51.9226 72.3308 52.1618C72.6189 52.6506 72.7413 52.8583 72.9395 53.1098C73.2071 53.4495 73.8721 53.8038 74.5616 53.4538C75.3824 53.0371 76.421 53.213 77.3888 53.7897C78.3501 54.3627 79.1871 55.3025 79.5819 56.3098C79.6958 56.6601 80.0086 57.1397 80.3907 57.658C80.7832 58.1903 81.2745 58.7967 81.7685 59.4026C81.812 59.4559 81.8555 59.5093 81.899 59.5626C82.351 60.1168 82.7988 60.6658 83.1758 61.1601C83.5931 61.7074 83.9068 62.1665 84.0468 62.4808C84.1418 62.6941 84.2354 62.9023 84.3273 63.1066C85.326 65.3271 86.1109 67.0723 86.0348 69.5822C85.9981 70.7917 86.1346 73.1354 86.4147 75.462C86.5549 76.6269 86.7317 77.7923 86.9421 78.8137C87.1516 79.8304 87.3976 80.721 87.6815 81.3265C87.9259 81.848 88.1176 82.3039 88.2922 82.7192C88.8499 84.0461 89.2334 84.9582 90.609 86.2726L67.3624 103.294C67.2027 103.03 67.0402 102.725 66.8576 102.383C66.7471 102.176 66.6293 101.955 66.5003 101.721C66.1015 100.997 65.61 100.174 64.9342 99.3267C63.5794 97.6272 61.4967 95.8411 57.9592 94.5101C57.0532 94.1693 56.2268 93.8633 55.47 93.5832C52.561 92.5062 50.6811 91.8103 49.2649 90.9754C47.5102 89.9409 46.4743 88.6942 45.1011 86.1764C43.7383 83.6777 43.2154 81.1435 42.8366 78.6876C42.7682 78.2444 42.7045 77.8027 42.6411 77.3638C42.3554 75.3837 42.0777 73.4595 41.4198 71.7033C40.844 70.166 40.069 68.7001 39.358 67.4002C39.2634 67.2273 39.1701 67.0576 39.0787 66.8913C38.4774 65.7974 37.9561 64.8489 37.6662 64.0806C37.428 63.4494 37.2636 62.9419 37.0939 62.4181L37.0843 62.3886C36.9111 61.854 36.7312 61.3008 36.4626 60.5884C36.2955 60.1449 36.1497 59.6844 36.1154 59.2537C36.0814 58.8273 36.158 58.4536 36.4101 58.1538C37.0294 57.4174 38.2146 57.0838 39.5614 57.3743C40.8986 57.6628 42.3627 58.5649 43.4775 60.2452L43.4773 60.2454L43.4832 60.2535C44.5804 61.7715 45.1767 63.1085 45.719 64.3242C45.8385 64.5923 45.9555 64.8545 46.0746 65.1114C46.735 66.5362 47.4577 67.7839 49.0549 68.8717Z" stroke="url(#paint1_linear_2055_254)" stroke-width="0.5"/>
</g>
<path d="M65.6844 49.5163C66.33 50.6732 67.817 53.3946 68.2909 55.5134M73.1034 53.2894C73.4542 53.8602 74.5228 55.5134 74.9207 57.2482M58.8725 46.9316C59.336 48.0953 60.2258 51.3015 60.2677 52.1829" stroke="url(#paint2_linear_2055_254)" stroke-width="0.5"/>
<path fill-rule="evenodd" clip-rule="evenodd" d="M65.0126 25.16L62.8562 27.1926C65.6695 30.6473 68.0129 35.8142 69.7614 41.986C71.8992 49.532 73.2075 58.793 73.3275 68.7912C73.4867 82.0502 71.5255 94.098 68.2003 102.597L70.9426 103.772L63.6099 109.259L62.5244 100.165L65.4413 101.415C68.5639 93.385 70.4833 81.7843 70.3278 68.8272C70.2104 59.0528 68.9305 50.059 66.875 42.8037C65.1931 36.8673 63.0306 32.2317 60.6667 29.2564L58.3482 31.4418L56.2402 22.5293L65.0126 25.16Z" fill="url(#paint3_linear_2055_254)"/>
<path fill-rule="evenodd" clip-rule="evenodd" d="M94.1724 60.0234L93.1124 63.0948L87.1089 56.1786L96.1003 54.4375L95.1515 57.1866C98.2874 58.3543 100.921 59.6941 102.865 61.1879C105.108 62.9106 106.685 65.043 106.65 67.5399C106.615 70.1391 104.847 72.2946 102.396 73.994C99.9087 75.7196 96.4201 77.1945 92.2529 78.3909C83.8995 80.7892 72.4764 82.1641 59.9465 81.9912C47.8015 81.8235 36.7309 80.2306 28.5135 77.7368L27.5641 80.4879L21.5605 73.5717L30.5519 71.8306L29.493 74.8989C37.3554 77.2697 48.0882 78.8272 59.9879 78.9915C72.3084 79.1615 83.4253 77.8041 91.425 75.5074C95.4344 74.3563 98.5757 72.9932 100.687 71.529C102.835 70.0387 103.635 68.653 103.651 67.4985C103.666 66.3908 102.968 65.0503 101.038 63.5669C99.418 62.3228 97.1029 61.1198 94.1724 60.0234Z" fill="url(#paint4_linear_2055_254)"/>
<defs>
<filter id="filter0_b_2055_254" x="25.8579" y="17.5742" width="75.1421" height="96.0801" filterUnits="userSpaceOnUse" color-interpolation-filters="sRGB">
<feFlood flood-opacity="0" result="BackgroundImageFix"/>
<feGaussianBlur in="BackgroundImage" stdDeviation="5"/>
<feComposite in2="SourceAlpha" operator="in" result="effect1_backgroundBlur_2055_254"/>
<feBlend mode="normal" in="SourceGraphic" in2="effect1_backgroundBlur_2055_254" result="shape"/>
</filter>
<linearGradient id="paint0_linear_2055_254" x1="50.0002" y1="16.5" x2="69.6914" y2="92.4688" gradientUnits="userSpaceOnUse">
<stop stop-color="#686A70"/>
<stop offset="1" stop-color="#121317"/>
</linearGradient>
<linearGradient id="paint1_linear_2055_254" x1="54.0002" y1="14.5" x2="71.2783" y2="94.48" gradientUnits="userSpaceOnUse">
<stop stop-color="#92949A"/>
<stop offset="0.856289" stop-color="#121317"/>
</linearGradient>
<linearGradient id="paint2_linear_2055_254" x1="76.5005" y1="46.5" x2="81.0005" y2="68.5" gradientUnits="userSpaceOnUse">
<stop stop-color="#535459"/>
<stop offset="1" stop-color="#07090F"/>
</linearGradient>
<linearGradient id="paint3_linear_2055_254" x1="70.1774" y1="80.254" x2="55.7237" y2="113.451" gradientUnits="userSpaceOnUse">
<stop stop-color="white"/>
<stop offset="1" stop-color="white" stop-opacity="0"/>
</linearGradient>
<linearGradient id="paint4_linear_2055_254" x1="67.6981" y1="80.8837" x2="108.138" y2="54.4375" gradientUnits="userSpaceOnUse">
<stop stop-color="white"/>
<stop offset="1" stop-color="white" stop-opacity="0"/>
</linearGradient>
</defs>
</svg>
