<svg width="124" height="124" viewBox="0 0 124 124" fill="none" xmlns="http://www.w3.org/2000/svg">
<path fill-rule="evenodd" clip-rule="evenodd" d="M8 8H32.0833V11.1819H11.1816V28.7763H8V8ZM11.1816 95.2232H8V116H32.0833V112.817H11.1816V95.2232ZM91.9149 112.817V116H116V95.2232H112.817V112.817H91.9149ZM112.817 28.7763H116V8H32.0833L91.9149 8V11.1819H112.817V28.7763Z" fill="white" fill-opacity="0.15"/>
<path d="M30.6993 53.8652C31.4468 53.121 33.0539 51.5954 33.5023 51.4466M30.6993 53.8652C30.5748 54.1132 30.0266 54.7954 28.8307 55.5396C25.6913 57.6233 11.9503 61.6261 5.47224 63.3671M30.6993 53.8652C29.1328 54.5893 25.9123 55.666 22.1034 56.834M33.5023 51.4466C34.3121 49.6481 36.1932 45.5675 37.2397 43.6327M33.5023 51.4466C33.0663 52.0667 31.7832 53.7163 30.1387 55.3535M33.5023 51.4466C31.8205 55.9117 28.2701 59.6326 24.9064 61.6791C22.8135 63.0186 15.3139 65.3325 11.8257 66.3221M33.5023 51.4466C34.1875 50.6404 36.0064 49.5117 37.8003 51.4466M37.2397 43.6327C37.6134 43.2606 38.5478 42.5536 39.2952 42.7024C40.2296 42.8885 41.0931 42.8885 42.7169 48.8419M37.2397 43.6327C37.8358 42.5305 39.1303 39.0331 40.699 35.4467M52.3759 28.0048L52.7497 28.749C53.1204 29.2334 53.7118 30.104 54.4315 31.3129M52.3759 28.0048C51.8734 27.2771 50.8014 26.079 49.0123 25.8858M52.3759 28.0048C52.9365 30.2994 54.1325 35.6699 54.4315 38.7955C54.8052 42.7024 57.0476 54.7954 58.7294 56.8419M58.7294 40.0978C58.9163 40.4699 59.3648 41.3257 59.6638 41.7722M58.7294 40.0978C55.8996 36.073 53.3614 33.9831 51.2547 34.0374M58.7294 40.0978C57.2273 36.3589 55.6465 33.3538 54.4315 31.3129M59.6638 41.7722C60.0375 42.3303 62.4668 44.7489 63.0274 46.0512M59.6638 41.7722C60.4735 44.6249 62.4294 50.8512 63.7748 52.9349M63.0274 46.0512C63.2818 46.4524 63.6489 47.003 64.0578 47.5724M63.0274 46.0512L64.0578 45.7797M73.4919 46.2373L71.4364 45.3071M73.4919 46.2373C70.5021 46.9815 67.1385 52.5008 65.8304 55.1675M73.4919 46.2373C73.6553 46.221 73.8446 46.2058 74.0525 46.1934M73.4919 46.2373C72.8899 46.4503 71.9366 46.7554 70.8022 47.0678M73.4919 46.2373C73.3325 46.2902 72.6641 46.6427 71.771 47.1308M78.5374 46.7954C79.5838 47.5396 81.3404 49.3381 82.0878 50.1442M78.5374 46.7954C77.8494 46.3062 76.4238 46.1654 75.1737 46.1616M78.5374 46.7954C77.847 46.6714 76.3557 46.4605 75.9134 46.6094M82.0878 50.1442C81.6464 49.7048 81.2048 49.369 80.7798 49.1151M82.0878 50.1442L84.3302 51.1639M82.0878 50.1442C82.3979 50.4324 82.8356 50.8613 83.3149 51.3656M77.0424 79.7255C76.7892 79.7885 76.4081 79.8882 75.9212 80.0184M77.0424 79.7255C77.603 80.2556 79.1727 81.3429 80.9666 81.4509C83.209 81.5859 85.2646 81.5281 87.6939 80.0184C88.0091 79.8224 88.3221 79.6206 88.6282 79.4175M77.0424 79.7255C77.519 79.6069 78.0193 79.5024 78.5374 79.4084M5.47224 63.3671L3.04297 62.2372C3.87159 62.0172 4.80494 61.7669 5.81531 61.493M5.47224 63.3671L7.52778 64.3231M7.52778 64.3231C13.5075 62.8836 26.4014 59.0744 30.1387 55.3535M7.52778 64.3231L9.77019 65.366M30.1387 55.3535C29.8368 55.721 29.2203 56.4051 28.3888 57.214M9.77019 65.366C14.255 64.075 23.7479 61.0837 25.8408 59.4465C26.8064 58.6912 27.6765 57.9068 28.3888 57.214M9.77019 65.366L11.8257 66.3221M11.8257 66.3221L14.0681 67.365M14.0681 67.365C18.3661 66.0899 27.3357 63.1302 28.8307 61.493C29.8615 60.364 31.3474 58.499 32.7549 56.2727M14.0681 67.365L16.1237 68.321M44.1346 28.749C45.0361 27.3813 45.9341 26.4072 46.7699 26.1444C47.4589 25.9278 48.0806 25.846 48.6386 25.8608M44.1346 28.749C42.9516 30.5435 41.7623 33.0156 40.699 35.4467M44.1346 28.749C43.3861 29.8572 42.3984 32.0861 41.3508 34.7412M44.1346 28.749C44.5222 28.5629 45.482 28.3024 46.2205 28.749M16.1237 68.321C20.1725 67.4094 28.7933 65.0651 30.8862 62.9814C33.5023 60.3768 35.371 57.7721 37.8003 51.4466M16.1237 68.321L18.1792 69.2771M37.8003 51.4466C38.2363 52.0667 39.5568 54.7954 41.3508 60.7488C43.5932 68.1907 44.3406 72.3871 47.7043 75.5912M37.8003 51.4466C39.1576 47.9124 41.2148 40.8908 43.418 35.0746M48.6386 25.8608C47.8633 26.2265 47.0478 27.2693 46.2205 28.749M48.6386 25.8608C48.7665 25.8642 48.8911 25.8727 49.0123 25.8858M18.1792 69.2771C20.4839 68.6049 26.065 67.186 29.9519 66.8883C34.8104 66.5163 38.3609 60.1907 39.8558 56.4698C40.4087 55.0938 41.4726 52.1403 42.7169 48.8419M18.1792 69.2771L20.2435 70.2372M20.2435 70.2372C22.6699 69.5971 28.4943 68.509 32.3811 69.2771C37.2397 70.2372 39.669 67.4465 40.7902 65.4C41.5967 63.9278 44.7241 56.1976 47.7377 51.0745M20.2435 70.2372L22.4772 71.276M71.4364 45.3071L69.3809 44.3768L66.7193 45.0783M71.4364 45.3071C69.97 45.9941 67.0226 47.1033 64.0578 47.5724M22.4772 71.276C25.0933 70.6817 30.9609 69.9395 33.5023 71.7255C36.6791 73.9581 39.4821 74.3302 41.5376 73.2139M22.4772 71.276L24.9064 72.4059M41.5376 73.2139C37.8003 63.7256 37.2397 58.5163 32.7549 56.2727M41.5376 73.2139C41.7868 73.8685 42.3225 75.2605 42.472 75.5912M41.5376 73.2139C43.2134 72.3039 45.0055 68.1946 46.9568 64.373M58.7294 56.8419C57.5952 56.4805 56.5241 56.3842 55.5527 56.453M58.7294 56.8419C58.0884 57.7637 57.556 58.6045 57.0804 59.4465M58.7294 56.8419L60.4112 53.8652M58.7294 56.8419L55.1789 65.0279M24.9064 72.4059C27.1489 71.869 32.3811 71.4279 35.371 73.9581M24.9064 72.4059L26.6437 73.2139M35.371 73.9581C33.1286 72.6185 28.6185 72.9038 26.6437 73.2139M35.371 73.9581C32.6801 73.7397 29.8896 74.0491 28.8307 74.231M35.371 73.9581L36.3053 74.8883M35.371 73.9581C32.2316 70.386 18.1169 63.1237 11.452 59.939M35.371 73.9581C34.1875 72.7178 31.4468 69.7907 29.9519 68.0046C28.0832 65.7721 23.5984 63.5395 21.356 62.6093C19.562 61.8651 15.7499 60.0262 14.0681 59.1997M26.6437 73.2139L28.8307 74.231M28.8307 74.231L31.0731 75.274M31.0731 75.274C32.1091 75.1072 34.3098 74.8228 35.7447 74.8544M31.0731 75.274L33.0439 76.1906M36.3053 74.8883C36.1377 74.8698 35.949 74.8589 35.7447 74.8544M36.3053 74.8883C45.1255 77.1209 55.3035 82.3146 59.29 84.6325M36.3053 74.8883C36.6257 74.9546 36.9365 75.0114 37.2397 75.0608M5.81531 61.493C13.674 65.462 31.2226 74.1069 38.5478 76.9348C47.7043 80.4697 57.0476 85.2622 57.0476 85.2622M5.81531 61.493C6.67299 61.2605 7.58618 61.0111 8.53793 60.7488M57.0476 85.2622C56.0237 85.55 55.0769 85.8165 54.2446 86.051L52.0022 85.0081M57.0476 85.2622C57.7618 85.0615 58.5135 84.8504 59.29 84.6325M8.53793 60.7488C15.3645 63.889 30.363 71.1063 35.7447 74.8544M8.53793 60.7488C9.47716 60.49 10.4539 60.2188 11.452 59.939M59.29 84.6325C60.2563 84.3613 61.261 84.0797 62.2799 83.7944M62.2799 83.7944C63.2086 83.5344 64.1491 83.2714 65.0829 83.0106M62.2799 83.7944C58.3477 81.7544 49.6095 77.4524 45.275 76.1155M11.452 59.939C12.3117 59.698 13.1873 59.4507 14.0681 59.1997M14.0681 59.1997C15.0006 58.934 15.939 58.6641 16.8711 58.3931M16.8711 58.3931C17.7432 58.9303 19.9358 60.1163 21.7297 60.5628C23.9721 61.1209 27.8963 62.0512 30.6993 65.4C33.5023 68.7488 35.371 72.4426 37.2397 75.0608M16.8711 58.3931C17.7956 58.1242 18.7139 57.8542 19.6139 57.5861M37.2397 75.0608C37.959 75.1779 38.6357 75.253 39.2952 75.3125M19.6139 57.5861C20.1946 57.9582 22.4024 58.8512 26.5882 59.4465C29.9519 59.8186 30.8862 60.3768 32.7549 62.2372C34.6235 64.0977 36.3053 69.2771 39.2952 75.3125M19.6139 57.5861C20.4634 57.3329 21.2966 57.0814 22.1034 56.834M39.2952 75.3125C40.3628 75.4089 41.3856 75.4644 42.472 75.5912M39.2952 75.3125C37.2023 75.3125 34.2556 75.8979 33.0439 76.1906M22.1034 56.834C23.1169 57.2087 25.7928 57.8093 28.3888 57.214M28.3888 57.214C29.3458 56.7725 31.5589 55.9661 32.7549 56.2727M32.7549 56.2727C33.8987 54.4634 34.9907 52.4155 35.7447 50.3303C36.87 47.2184 39.2328 40.1089 41.3508 34.7412M42.472 75.5912C43.2715 75.5712 44.4533 75.5557 45.6487 75.5656M42.472 75.5912C42.4964 75.594 42.5209 75.5969 42.5455 75.5999M47.7043 75.5912C48.0335 75.486 48.4916 75.3531 49.0123 75.2216M47.7043 75.5912L45.275 76.1155M42.7169 48.8419C44.8373 43.2211 47.4814 36.5987 49.0123 35.0746C49.6898 34.4 50.44 34.0583 51.2547 34.0374M42.7169 48.8419C43.6942 53.0565 45.9103 62.063 46.9568 64.373M46.9568 64.373C48.1969 61.9442 49.5013 59.6316 50.881 58.3303C51.6186 57.6391 53.3231 56.6111 55.5527 56.453M46.9568 64.373C47.5174 65.7696 48.975 68.6372 50.3204 68.9348C51.4901 69.1936 52.7503 68.0124 53.7864 66.3302M40.699 35.4467C40.7917 35.2244 41.0518 34.7722 41.3508 34.7412M41.3508 34.7412C41.7946 34.6042 42.8294 34.4792 43.418 35.0746M43.418 35.0746C44.1216 36.3769 45.9705 41.4001 47.7377 51.0745M43.418 35.0746C44.3402 32.6402 45.2879 30.417 46.2205 28.749M47.7377 51.0745C48.9132 49.0759 50.0715 47.4742 51.0679 46.7954C54.6183 44.3768 55.3658 47.1675 60.2244 47.7257C61.42 47.863 62.7406 47.7809 64.0578 47.5724M47.7377 51.0745C48.2248 54.1132 49.685 60.6372 51.6285 62.4233C51.82 62.5992 52.0068 62.7359 52.1891 62.8382M56.6749 60.1907C56.0808 61.3212 55.5605 62.4969 54.9921 63.9116C54.6507 64.7613 54.24 65.5938 53.7864 66.3302M56.6749 60.1907C56.5109 60.2561 56.3237 60.4364 56.1133 60.6772M56.6749 60.1907C56.8061 59.9411 56.9408 59.6938 57.0804 59.4465M65.0829 83.0106C64.7092 82.5748 51.2547 76.1906 49.7598 75.8185C49.059 75.6441 47.3403 75.5795 45.6487 75.5656M65.0829 83.0106C65.9662 82.764 66.8434 82.5193 67.6991 82.2812M56.1133 60.6772C55.8018 60.6772 55.1042 60.6772 54.8052 60.6772M56.1133 60.6772C55.6184 61.2435 54.9954 62.1439 54.2446 62.6687M54.8052 60.6772C54.4315 60.6772 52.7497 62.1369 52.1891 62.8382M54.8052 60.6772C54.6806 60.577 54.1325 59.7814 52.9365 57.4C51.4416 54.4233 50.1335 45.3071 49.0123 38.7955C48.1154 33.5862 46.7774 29.9273 46.2205 28.749M52.1891 62.8382C50.7564 65.9659 47.4426 72.89 45.6487 75.5656M52.1891 62.8382C52.9565 63.269 53.6417 63.09 54.2446 62.6687M45.6487 75.5656L45.275 76.1155M67.6991 82.2812C67.263 82.0494 65.7556 81.2883 63.2142 80.0976C62.6467 79.8317 62.0135 79.4945 61.3456 79.1189M67.6991 82.2812C68.1416 82.158 68.5783 82.0365 69.0071 81.9174M49.0123 75.2216C50.2651 74.9053 51.8805 74.5971 52.9365 74.7023C54.4713 74.8551 58.2752 77.3924 61.3456 79.1189M49.0123 75.2216C50.0089 72.4214 52.4507 65.9905 54.2446 62.6687M49.0123 75.2216C49.9291 74.8272 50.5843 74.4758 51.0679 74.1687M70.6889 81.4509C71.7789 81.1491 72.7897 80.8704 73.6788 80.6269M70.6889 81.4509C68.7486 80.7024 64.9992 79.0712 62.0937 77.3069M70.6889 81.4509C70.1462 81.6012 69.5838 81.7572 69.0071 81.9174M70.6889 81.4509C72.1133 83.988 74.4349 87.4511 76.1616 89.7719M53.1234 72.6558C54.6183 72.4077 56.1133 72.4697 59.4769 75.4464C59.6859 75.6314 59.9142 75.8177 60.1589 76.0046M53.1234 72.6558C52.4303 72.7708 52.457 73.2867 51.0679 74.1687M53.1234 72.6558C54.2446 71.3534 56.8608 68.1162 58.3557 65.586C59.7911 63.1566 60.8957 61.8249 62.093 61.3379M51.0679 74.1687C51.6344 72.7199 52.9714 69.1238 53.7864 66.3302M51.0679 74.1687C51.4851 73.4824 52.1789 72.4336 52.9365 71.4611M53.7864 66.3302L55.1789 65.0279M64.896 77.3069C61.7193 75.2604 59.4769 71.7255 58.9163 70.9813C58.3557 70.2372 57.0476 68.3767 55.3658 69.1209C55.0281 69.2703 54.6442 69.5723 54.2446 69.9636M64.896 77.3069C65.3966 77.6294 65.9683 77.9372 66.5778 78.2268M64.896 77.3069H62.0937M64.896 77.3069L66.0713 77.3511M73.6788 80.6269C74.5596 80.3856 75.3208 80.1789 75.9212 80.0184M73.6788 80.6269C72.5188 80.3634 70.394 79.7786 68.3412 78.9813M66.391 50.1442C65.9265 49.913 65.2414 49.1395 64.585 48.2838M66.391 50.1442L63.7748 52.9349M66.391 50.1442C67.3386 50.2683 69.5474 50.3675 70.8022 49.7722M66.391 50.1442C67.2303 49.6668 68.4093 48.9999 69.5677 48.3518M64.0578 47.5724C64.228 47.8094 64.4054 48.0497 64.585 48.2838M64.0578 47.5724L64.585 48.2838M64.585 48.2838C65.7275 48.1819 66.9463 47.9755 68.1186 47.7257M49.0123 25.8858C49.6352 27.6991 50.9557 31.8681 51.2547 34.0374M51.2547 34.0374C52.1891 40.1012 54.3567 53.0737 55.5527 56.453M55.5527 56.453C55.7614 57.2028 56.3592 58.8512 57.0804 59.4465M57.0804 59.4465C57.6301 59.0744 58.9163 58.1814 59.6638 57.5861M57.0804 59.4465L55.1789 65.0279M54.4315 31.3129C55.1167 33.0009 56.6365 37.2327 57.2345 40.6559C57.982 44.935 58.7294 49.028 60.4112 53.8652M60.4112 53.8652H63.0274M60.4112 53.8652L62.4668 54.7954M63.7748 52.9349C63.7748 53.121 65.2698 54.4233 65.8304 55.1675M63.7748 52.9349L63.0274 53.8652M65.8304 55.1675L65.4566 56.6558M65.8304 55.1675C66.1283 55.5629 67.0066 55.5906 68.0728 55.7531M80.2192 79.1425C79.7833 76.803 79.284 74.6279 78.7674 72.6558M80.2192 79.1425C79.1727 78.9738 77.167 78.9647 76.2949 78.9813M80.2192 79.1425C80.7704 79.0658 81.333 78.9956 81.901 78.9281M80.2192 79.1425C79.6438 79.2226 79.0808 79.3097 78.5374 79.4084M59.6638 57.5861L62.4668 54.7954M59.6638 57.5861C59.125 58.9504 57.8541 62.0512 57.0804 63.5395M59.6638 57.5861C60.2244 58.2889 61.4951 60.0232 62.093 61.3379M63.0274 53.8652C63.588 54.2993 64.8587 55.4652 65.4566 56.6558M62.4668 54.7954C62.9028 54.7954 64.1112 55.1675 65.4566 56.6558M62.4668 54.7954C63.0897 56.4242 64.4476 60.1048 64.896 61.7967M65.4566 56.6558C65.7449 57.1437 66.1906 57.9132 66.6307 58.7023M65.4566 56.6558L67.6991 65.9581M68.0728 55.7531C69.013 55.8964 70.0994 56.1444 71.0627 56.8419C72.4473 57.8444 73.4079 58.847 74.2302 60.1907M68.0728 55.7531C68.6113 54.2243 69.6155 51.8069 70.8022 49.7722M68.0728 55.7531C67.5921 56.7362 66.6307 58.7023 66.6307 58.7023M74.0525 46.1934C74.3879 46.1733 74.7717 46.1604 75.1737 46.1616M74.0525 46.1934C72.9531 46.5877 71.8116 48.0415 70.8022 49.7722M75.1737 46.1616C75.372 46.2529 75.6244 46.4007 75.9134 46.6094M101.709 73.4077L98.5322 74.3302C97.1041 74.9395 94.6959 75.9148 92.3655 76.7475M101.709 73.4077C100.961 73.2191 99.2796 72.8418 98.5322 72.8418C94.0473 72.8418 93.4867 73.9581 92.3655 73.9581C90.5716 73.8092 89.7494 73.3999 89.5625 73.2139C86.3858 71.1674 84.3302 61.493 80.0323 52.3768C79.9836 52.2507 79.9339 52.1266 79.8834 52.0047M101.709 73.4077L104.418 72.6209M70.8022 49.7722C71.2018 49.6759 71.9182 49.6793 72.7445 50.0144M85.4514 78.5086C83.9565 76.3904 81.5272 68.0046 80.2192 63.3535C79.3488 60.2588 78.3131 57.4936 77.1118 55.1675M85.4514 78.5086C85.6392 78.4844 85.8262 78.4596 86.012 78.434M85.4514 78.5086C84.7928 79.1003 83.2353 80.9162 82.2747 83.4464C81.074 86.6092 80.7798 87.9115 79.2848 91.6324C78.0889 94.6091 76.9796 96.3456 76.5744 96.8417M85.4514 78.5086C84.5895 78.6199 83.7101 78.7189 82.8353 78.8194M75.9212 80.0184C74.5299 79.6932 72.1218 79.159 70.0039 78.7557M66.5778 78.2268C66.7431 78.2387 66.9312 78.2577 67.1385 78.2828M66.5778 78.2268L61.3456 79.1189M66.5778 78.2268C67.1419 78.4948 67.7385 78.7472 68.3412 78.9813M67.1385 78.2828C67.1111 78.2679 67.5638 78.3121 68.2597 78.3869M67.1385 78.2828C66.8678 77.7563 66.5644 77.0104 66.2428 76.1155M67.1385 78.2828C66.9234 78.1818 66.5543 77.8942 66.0713 77.3511M67.1385 78.2828C67.8969 78.3745 68.9118 78.5477 70.0039 78.7557M57.0804 63.5395C56.3067 65.0279 54.8675 68.4424 54.2446 69.9636M57.0804 63.5395L59.29 64.6558C60.5526 66.6757 60.8875 67.4806 61.3456 68.6327M57.0804 63.5395L54.2446 68.0046M57.0804 63.5395L55.1789 65.0279M54.2446 69.9636C53.8139 70.3855 53.365 70.9111 52.9365 71.4611M54.2446 68.0046L52.9365 71.4611M54.2446 68.0046L55.1789 65.0279M75.9134 46.6094C75.2931 46.9569 73.7909 48.1245 72.7445 50.0144M75.9134 46.6094C76.4588 47.0031 77.1344 47.6134 77.8217 48.4698M72.7445 50.0144C73.5147 50.3269 74.3804 50.9276 75.1737 52.0047C75.8616 52.9386 76.5077 53.9975 77.1118 55.1675M72.7445 50.0144C71.7478 52.6623 69.3809 58.5907 67.8859 61.1209M67.8859 61.1209C67.645 60.5612 67.1416 59.6185 66.6307 58.7023M67.8859 61.1209L68.4465 62.6093M68.4465 62.6093C68.6957 62.5473 69.2687 62.4605 69.5677 62.6093M68.4465 62.6093C68.5306 62.9118 68.632 63.2892 68.7453 63.7256M69.5677 62.6093C70.2529 61.493 71.7354 59 72.1839 57.9582C72.7445 56.6558 74.4263 52.5628 75.5475 50.8884C76.6687 49.214 77.1061 48.8419 77.8217 48.4698M69.5677 62.6093C69.8629 62.6093 70.5032 62.9878 71.3802 64.1933M77.8217 48.4698C78.3303 48.3296 79.4773 48.3374 80.7798 49.1151M77.8217 48.4698C78.5416 49.3669 79.2743 50.5339 79.8834 52.0047M86.012 54.7954C85.1451 53.9892 83.2415 52.3024 82.5627 52.0047M86.012 54.7954C86.6753 56.006 88.1886 58.3884 89.8557 60.7488M86.012 54.7954C86.4 55.2368 87.1159 55.8967 88.0676 56.5327M86.012 54.7954C85.7996 54.4076 85.52 53.9912 85.2046 53.5701M107.128 71.8341C103.017 69.8651 96.4766 69.1209 93.2999 65.2139C92.2313 63.9981 91.0068 62.3787 89.8557 60.7488M107.128 71.8341L104.418 72.6209M107.128 71.8341L109.744 71.0744M80.7798 49.1151C81.1876 49.7136 81.8178 50.7118 82.5627 52.0047M104.418 72.6209C99.4665 70.3534 97.411 71.5395 94.6079 70.4232C91.8049 69.3069 89.7494 67.8186 86.9464 60.9349C85.5196 57.4308 83.8657 54.2667 82.5627 52.0047M82.5627 52.0047H79.8834M79.8834 52.0047C79.2318 52.5628 77.7653 53.9768 77.1118 55.1675M77.1118 55.1675L74.2302 60.1907M74.2302 60.1907C74.6287 60.8418 74.9946 61.5731 75.3606 62.4233C76.1549 64.2686 77.512 67.8631 78.7674 72.6558M74.2302 60.1907C73.6104 61.1209 72.2212 63.1674 71.6233 63.9116L71.3802 64.1933M73.4919 68.0046C72.6996 66.2448 71.9838 65.0231 71.3802 64.1933M73.4919 68.0046C74.4638 70.7692 75.4701 74.4582 75.9742 76.9348M73.4919 68.0046C72.6822 67.8186 70.9879 67.4056 70.6889 67.2422M73.4919 68.0046C74.1148 67.6945 75.7717 66.293 77.4162 63.1674C79.4717 59.2605 81.5272 57.1865 83.209 56.4698C84.5545 55.8964 87.3201 56.6558 89.9363 58.3303M76.2949 78.9813C76.2629 78.5032 76.1486 77.7915 75.9742 76.9348M76.2949 78.9813C75.5475 78.9813 73.9404 78.9813 73.4919 78.9813M76.2949 78.9813C73.928 79.3731 68.297 80.4156 64.7092 81.4509C61.1213 82.4862 54.7429 84.2537 52.0022 85.0081M67.6991 65.9581C69.194 68.9348 69.194 70.7953 70.6889 73.0278M67.6991 65.9581C66.7371 64.0427 65.8526 62.5895 64.896 61.7967M67.6991 65.9581C68.1974 69.5789 69.3061 77.1668 69.7546 78.5521M70.6889 73.0278C71.8663 74.7861 72.4698 74.9684 73.0338 76.9348M70.6889 73.0278L71.5439 78.7557M70.6889 73.0278C70.2259 69.7874 69.3285 65.9729 68.7453 63.7256M73.4919 78.9813C73.3351 78.1254 73.1859 77.4652 73.0338 76.9348M73.4919 78.9813C72.9448 78.9174 72.2598 78.8379 71.5439 78.7557M73.0338 76.9348H75.9742M73.0338 76.9348C72.5636 74.8263 71.5111 70.1627 71.0627 68.3767C70.9695 68.0058 70.8404 67.6231 70.6889 67.2422M75.9742 76.9348C76.5459 76.2526 77.905 74.4418 78.7674 72.6558M78.7674 72.6558C79.5628 70.8573 81.5646 66.7023 83.209 64.4698C85.2646 61.6791 86.7853 60.1907 89.8557 60.7488M89.8557 60.7488C92.94 61.0589 100.041 61.3442 103.772 60.0047M103.772 60.0047L101.727 59.0744M103.772 60.0047L105.818 60.9349M52.0022 85.0081L49.9467 84.0521M33.0439 76.1906L35.1841 77.186M35.1841 77.186C36.915 76.7834 40.8104 75.9025 42.5455 75.5999M35.1841 77.186L37.4266 78.229M42.5455 75.5999C43.2885 75.6886 44.0623 75.8116 44.9012 76.0046C45.0218 76.0389 45.1464 76.0759 45.275 76.1155M37.4266 78.229C39.3516 77.6964 43.6163 76.5281 45.275 76.1155M37.4266 78.229L39.2952 79.0981M39.2952 79.0981C42.7834 78.2271 50.1709 76.2324 51.8153 75.2216C54.9921 73.772 58.1688 70.0049 61.3456 68.6327M39.2952 79.0981L41.1639 79.9672M61.3456 68.6327C61.6891 69.4967 62.1019 70.5561 63.0274 72.4697C63.1522 72.7279 63.2757 72.9759 63.3977 73.2139M61.3456 68.6327C61.9414 68.4679 63.3094 68.2737 64.0145 68.8156M62.093 61.3379C62.4544 61.1909 62.8243 61.1209 63.2142 61.1209C63.8139 61.1209 64.366 61.3574 64.896 61.7967M62.093 61.3379C62.5395 63.2087 63.2407 65.9975 64.0145 68.8156M64.0145 68.8156L66.7647 71.7255M64.0145 68.8156C64.7436 71.4708 65.5372 74.1519 66.2428 76.1155M64.896 61.7967C65.3321 64.2919 66.3162 69.771 66.7647 71.7255M66.7647 71.7255C67.2132 73.6801 67.9482 76.9808 68.2597 78.3869M66.7647 71.7255C67.4499 73.6099 69.0071 77.6133 69.7546 78.5521M68.2597 78.3869C68.6851 78.4326 69.2015 78.4899 69.7546 78.5521M69.7546 78.5521C70.3315 78.6169 70.9484 78.6873 71.5439 78.7557M68.7453 63.7256C69.2092 64.3643 70.1112 65.7895 70.6889 67.2422M41.1639 79.9672C44.9635 79.0546 53.1982 76.8278 55.7395 75.2216C58.2809 73.6154 61.9039 73.2139 63.3977 73.2139M41.1639 79.9672L43.5932 81.0971M63.3977 73.2139L66.2428 76.1155M63.3977 73.2139C64.4256 75.2208 65.3415 76.5205 66.0322 77.3069M43.5932 81.0971C47.5613 79.8462 56.4298 77.0765 60.1589 76.0046M43.5932 81.0971L45.6487 82.0531M60.1589 76.0046C61.0628 75.7565 63.5028 75.6697 66.0322 77.3069M60.1589 76.0046C60.7282 76.4394 61.3859 76.8771 62.0937 77.3069M66.0322 77.3069C66.0453 77.3218 66.0583 77.3365 66.0713 77.3511M45.6487 82.0531C49.6927 80.7191 58.6434 77.9022 62.0937 77.3069M45.6487 82.0531L47.8911 83.096M47.8911 83.096C51.6919 81.8782 59.7039 79.3778 61.3456 79.1189M47.8911 83.096L49.9467 84.0521M49.9467 84.0521C54.4225 82.6719 64.3676 79.7255 68.3412 78.9813M68.3412 78.9813L70.0039 78.7557M70.0039 78.7557C71.2911 79.513 74.202 81.3999 75.5475 82.8883C76.8556 84.1906 79.8454 86.758 81.3404 86.6092C83.209 86.4231 85.0777 85.865 86.9464 83.0743M64.0578 45.7797C64.9284 46.3043 66.9593 47.428 68.1186 47.7257M64.0578 45.7797L66.7193 45.0783M68.1186 47.7257L69.5677 48.3518M68.1186 47.7257C69.065 47.524 69.981 47.2939 70.8022 47.0678M69.5677 48.3518C70.3483 47.9151 71.1195 47.4869 71.771 47.1308M66.7193 45.0783L70.8022 47.0678M70.8022 47.0678L71.771 47.1308M89.9363 58.3303C90.4346 58.7023 91.8423 59.4837 93.4867 59.6326M89.9363 58.3303L88.8692 57.027M89.9363 58.3303C91.7367 60.3147 95.9766 64.6186 98.5322 65.9581C101.727 67.6325 106.194 69.1209 109.744 71.0744M93.4867 59.6326C95.1312 59.7814 99.6652 59.3225 101.727 59.0744M93.4867 59.6326C96.2897 62.4812 100.401 64.8418 103.391 66.1442C105.783 67.186 110.367 69.3586 112.36 70.3147M93.4867 59.6326L88.8692 57.027M101.727 59.0744L99.2718 57.9582M99.2718 57.9582C98.34 58.2682 95.6918 58.7768 92.5524 58.3303C91.1785 58.1348 89.9216 57.6235 88.8692 57.027M99.2718 57.9582L97.2241 57.027M97.2241 57.027L94.7712 55.9117M97.2241 57.027C96.0101 57.2255 93.7989 57.4749 91.8049 57.4329M88.8692 57.027C88.5867 56.8669 88.3189 56.7006 88.0676 56.5327M88.8692 57.027C89.6368 57.2942 90.6867 57.4093 91.8049 57.4329M94.7712 55.9117L92.7255 54.9814M94.7712 55.9117C93.8486 56.1797 92.125 56.5693 90.4969 56.6758M88.0676 56.5327L87.507 55.7256M88.0676 56.5327C88.7526 56.7078 89.6106 56.7337 90.4969 56.6758M92.7255 54.9814L90.4969 53.968M92.7255 54.9814C91.821 55.2474 89.8381 55.7143 88.2545 55.7476M87.507 55.7256C87.2104 55.4422 86.7882 55.0403 86.3858 54.66M87.507 55.7256C87.7407 55.7468 87.9921 55.7531 88.2545 55.7476M85.2046 53.5701C85.2646 53.6065 85.8045 54.1106 86.3858 54.66M85.2046 53.5701C84.9524 53.2333 84.6774 52.8936 84.3954 52.5628M85.2046 53.5701C85.4564 53.6162 85.7305 53.6318 86.012 53.6256M90.4969 53.968C89.6871 54.2776 87.7312 54.8494 86.3858 54.66M90.4969 53.968L88.6282 53.1183M86.3858 54.66L88.2545 55.7476M88.6282 53.1183L86.5727 52.1836M88.6282 53.1183C88.1107 53.3043 87.0143 53.6035 86.012 53.6256M86.5727 52.1836C86.2135 52.3393 85.2752 52.6332 84.3954 52.5628M86.5727 52.1836L84.3302 51.1639M84.3954 52.5628C84.0354 52.1405 83.6641 51.733 83.3149 51.3656M84.3302 51.1639L83.3149 51.3656M86.012 53.6256L117.966 68.6868M117.966 68.6868L120.956 67.8186L118.807 66.8414M117.966 68.6868L115.163 69.5007M115.163 69.5007C111.545 67.8237 103.302 63.9116 99.2718 61.6791C94.2342 58.8884 94.0473 58.768 91.8049 57.4329M115.163 69.5007L112.36 70.3147M91.8049 57.4329L90.4969 56.6758M90.4969 56.6758L88.2545 55.7476M112.36 70.3147L109.744 71.0744M105.818 60.9349C104.242 61.493 100.13 62.6465 96.2897 62.7953C91.49 62.9814 89.1888 65.0279 88.2545 66.1442C87.3201 67.2604 83.5828 73.1075 81.901 78.9281M105.818 60.9349L108.249 62.0404M81.901 78.9281C82.2112 78.8913 82.5229 78.8552 82.8353 78.8194M108.249 62.0404C106.381 62.4781 101.821 63.5395 98.5322 64.2837C94.4211 65.2139 92.1787 67.0744 90.4969 69.3069C88.8151 71.5395 87.1333 75.096 86.012 78.434M108.249 62.0404L110.492 63.0601M86.012 78.434C86.4551 78.3731 86.8921 78.3081 87.3201 78.2371C87.5994 78.1908 87.9132 78.124 88.2545 78.0403M110.492 63.0601C106.817 63.654 98.6443 65.5116 95.3554 68.1907C92.0665 70.8697 89.874 75.7062 89.1888 77.7895M110.492 63.0601L112.547 63.9948M89.1888 77.7895C89.7713 77.6218 90.4028 77.4217 91.0575 77.2017M89.1888 77.7895C88.8603 77.8841 88.5473 77.9684 88.2545 78.0403M112.547 63.9948C108.934 64.7733 101.298 66.6279 99.6534 67.8186C97.5978 69.3069 93.6736 71.3291 91.0575 77.2017M112.547 63.9948L114.79 65.0145M91.0575 77.2017C91.4254 77.0781 91.8006 76.9481 92.1787 76.814M91.0575 77.2017C90.5592 77.5372 89.3757 78.4501 88.6282 79.4175M114.79 65.0145C110.741 65.8368 101.933 67.9953 99.0928 70.0511C95.5423 72.6209 94.6079 73.1584 92.1787 76.814M114.79 65.0145L116.658 65.8642M92.1787 76.814C93.6736 75.2049 96.2897 72.6209 101.148 70.6093C105.035 69 113.108 66.7753 116.658 65.8642M92.1787 76.814C92.2409 76.792 92.3032 76.7698 92.3655 76.7475M92.1787 76.814C91.3859 77.7574 89.8442 79.6927 88.8705 81.2139M92.1787 76.814C91.6046 77.2873 90.2087 78.3689 88.6282 79.4175M116.658 65.8642L118.807 66.8414M118.807 66.8414C114.042 68.0973 103.727 70.9441 100.588 72.2837C96.6635 73.9581 93.6736 75.7055 92.3655 76.7475M86.9464 83.0743L88.8705 81.2139M86.9464 83.0743C87.6939 81.1394 88.379 79.8303 88.6282 79.4175M86.9464 83.0743C86.5104 84.1906 85.6009 86.6836 85.4514 87.7254M85.4514 87.7254C86.9464 85.3069 87.3201 84.1906 88.2545 82.2812C88.4073 81.9687 88.6202 81.605 88.8705 81.2139M85.4514 87.7254C84.5171 90.2061 82.1252 95.5394 80.0323 97.0277C79.906 97.1176 79.7814 97.1957 79.6586 97.2629M85.4514 87.7254C84.6417 89.1518 82.7232 92.1533 81.5272 92.7487M69.0071 81.9174C69.4422 82.9955 70.0135 84.3923 70.6272 85.865M81.5272 92.7487C80.0323 93.4929 79.2848 93.3068 77.9768 92.0045C77.5751 91.6046 76.9267 90.8004 76.1616 89.7719M81.5272 92.7487C82.4616 90.7022 84.1434 85.4929 85.0777 82.8883C85.8252 80.8046 87.507 78.7881 88.2545 78.0403M81.5272 92.7487C81.2158 93.6496 80.406 95.8138 79.6586 97.2629M79.6586 97.2629C78.4543 97.9218 77.4197 97.5313 76.5744 96.8417M76.5744 96.8417C75.7206 96.145 75.06 95.143 74.6131 94.6091C74.4056 94.3612 74.0012 93.57 73.4919 92.4738M73.4919 92.4738C74.0882 92.0693 75.4569 90.9626 76.1616 89.7719M73.4919 92.4738C72.6795 90.7249 71.6 88.1996 70.6272 85.865M76.1616 89.7719C77.0781 87.5978 79.2475 82.768 80.5929 80.8418C81.4899 79.4823 82.4616 78.9271 82.8353 78.8194M70.6272 85.865C71.333 85.927 72.9313 85.8278 73.6788 84.9348C74.6131 83.8185 77.4162 79.9974 78.5374 79.4084" stroke="url(#paint0_linear_2055_291)" stroke-width="0.5"/>
<defs>
<linearGradient id="paint0_linear_2055_291" x1="124.655" y1="66.8337" x2="-0.484218" y2="61.7303" gradientUnits="userSpaceOnUse">
<stop stop-color="white" stop-opacity="0"/>
<stop offset="0.44665" stop-color="white"/>
<stop offset="1" stop-color="white" stop-opacity="0"/>
</linearGradient>
</defs>
</svg>
