<svg width="587" height="230" viewBox="0 0 587 230" fill="none" xmlns="http://www.w3.org/2000/svg">
<g opacity="0.9">
<path fill-rule="evenodd" clip-rule="evenodd" d="M140.797 71.8723C141.071 68.4016 142.595 60.7345 146.709 56.5555C151.001 51.383 156.894 48.4193 162.317 47.5441C194.196 42.3993 240.666 42.822 264.411 43.2141C288.156 43.6063 345.18 47.4054 381.891 70.1738C399.476 81.0326 418.224 101.261 425.4 110.019L432.191 118.746L444.709 138.656L460.557 167.328L448.218 213.029L439.333 201.047L425.4 182.961L420.262 175.857C416.369 172.149 413.78 173.114 409.149 177.366C406.141 180.128 403.149 186.493 399.957 193.283C395.465 202.84 390.576 213.239 384.691 215.622C369.322 221.357 353.674 220.043 321.69 217.358C315.273 216.819 308.199 216.225 300.337 215.622C274.963 213.674 250.852 213.127 230.208 212.659C212.575 212.259 197.471 211.916 186.268 210.808C156.775 207.888 143.438 184.432 140.797 160.313C138.685 141.018 139.917 92.4754 140.797 71.8723ZM152.598 75.0494C152.855 72.1269 153.574 69.0004 154.678 66.6678C157.39 60.9367 162.832 59.756 166.963 59.0688C181.061 56.7234 251.317 54.5408 264.412 55.3654L264.968 55.3786C288.646 55.9421 336.017 57.0695 374.797 80.5456C394.386 91.8068 394.601 108.804 394.743 120.029C394.748 120.435 394.753 120.833 394.759 121.224C394.294 148.309 389.676 199.747 373.036 203.913C357.149 207.89 338.467 206.532 318.807 205.104C312.726 204.662 306.552 204.213 300.338 203.913C294.481 203.631 284.971 203.323 273.836 202.963C242.431 201.949 198.092 200.516 186.269 198.041C170.255 194.689 154.678 182.26 152.598 158.633C150.934 139.731 151.905 95.0349 152.598 75.0494Z" fill="url(#paint0_radial_2451_630)" fill-opacity="0.23"/>
<path d="M146.709 56.5555L147.066 56.9063L147.08 56.8911L147.094 56.8748L146.709 56.5555ZM140.797 71.8723L140.299 71.8329L140.298 71.8419L140.298 71.851L140.797 71.8723ZM162.317 47.5441L162.396 48.0377L162.317 47.5441ZM264.411 43.2141L264.403 43.7141L264.411 43.2141ZM381.891 70.1738L381.627 70.5987L381.628 70.5992L381.891 70.1738ZM425.4 110.019L425.795 109.711L425.787 109.702L425.4 110.019ZM432.191 118.746L432.614 118.48L432.601 118.459L432.585 118.439L432.191 118.746ZM444.709 138.656L445.147 138.414L445.14 138.402L445.132 138.39L444.709 138.656ZM460.557 167.328L461.039 167.458L461.092 167.263L460.994 167.086L460.557 167.328ZM448.218 213.029L447.816 213.326L448.431 214.156L448.7 213.159L448.218 213.029ZM439.333 201.047L439.735 200.749L439.729 200.741L439.333 201.047ZM425.4 182.961L424.995 183.254L424.999 183.26L425.004 183.266L425.4 182.961ZM420.262 175.857L420.667 175.564L420.64 175.526L420.607 175.494L420.262 175.857ZM409.149 177.366L408.81 176.998V176.998L409.149 177.366ZM399.957 193.283L400.409 193.496L399.957 193.283ZM384.691 215.622L384.866 216.09L384.879 216.085L384.691 215.622ZM321.69 217.358L321.732 216.859L321.69 217.358ZM300.337 215.622L300.299 216.12L300.337 215.622ZM230.208 212.659L230.219 212.159L230.208 212.659ZM186.268 210.808L186.219 211.305L186.268 210.808ZM140.797 160.313L141.294 160.259L140.797 160.313ZM154.678 66.6678L155.13 66.8817L154.678 66.6678ZM152.598 75.0494L152.1 75.0056L152.099 75.0188L152.098 75.0321L152.598 75.0494ZM166.963 59.0688L167.045 59.562L166.963 59.0688ZM264.412 55.3654L264.381 55.8644L264.39 55.865L264.4 55.8653L264.412 55.3654ZM264.968 55.3786L264.956 55.8785L264.956 55.8785L264.968 55.3786ZM374.797 80.5456L374.538 80.9734L374.548 80.9791L374.797 80.5456ZM394.743 120.029L395.243 120.022V120.022L394.743 120.029ZM394.759 121.224L395.259 121.232L395.259 121.224L395.259 121.216L394.759 121.224ZM373.036 203.913L373.157 204.398L373.036 203.913ZM318.807 205.104L318.771 205.602L318.807 205.104ZM300.338 203.913L300.313 204.413L300.338 203.913ZM273.836 202.963L273.82 203.463L273.836 202.963ZM186.269 198.041L186.372 197.552L186.269 198.041ZM152.598 158.633L152.1 158.677L152.598 158.633ZM146.353 56.2047C144.218 58.3735 142.778 61.4188 141.837 64.3256C140.895 67.2389 140.439 70.0621 140.299 71.8329L141.296 71.9116C141.43 70.2118 141.872 67.4661 142.789 64.6334C143.707 61.7942 145.086 58.9165 147.066 56.9063L146.353 56.2047ZM162.237 47.0505C156.702 47.9437 150.698 50.9647 146.324 56.2362L147.094 56.8748C151.304 51.8013 157.085 48.8948 162.396 48.0377L162.237 47.0505ZM264.42 42.7142C240.683 42.3222 194.168 41.8974 162.237 47.0505L162.396 48.0377C194.225 42.9012 240.649 43.3218 264.403 43.7141L264.42 42.7142ZM382.154 69.7489C363.72 58.316 340.215 51.6599 318.376 47.8104C296.529 43.9597 276.309 42.9106 264.42 42.7142L264.403 43.7141C276.259 43.9099 296.423 44.9564 318.202 48.7953C339.988 52.6355 363.35 59.2631 381.627 70.5987L382.154 69.7489ZM425.787 109.702C418.6 100.931 399.809 80.651 382.153 69.7484L381.628 70.5992C399.142 81.4142 417.848 101.592 425.013 110.335L425.787 109.702ZM432.585 118.439L425.795 109.712L425.005 110.326L431.796 119.053L432.585 118.439ZM445.132 138.39L432.614 118.48L431.767 119.013L444.286 138.922L445.132 138.39ZM460.994 167.086L445.147 138.414L444.271 138.898L460.119 167.57L460.994 167.086ZM448.7 213.159L461.039 167.458L460.074 167.198L447.735 212.898L448.7 213.159ZM438.932 201.344L447.816 213.326L448.619 212.731L439.735 200.749L438.932 201.344ZM425.004 183.266L438.937 201.352L439.729 200.741L425.796 182.656L425.004 183.266ZM419.857 176.15L424.995 183.254L425.805 182.668L420.667 175.564L419.857 176.15ZM409.487 177.735C411.809 175.603 413.517 174.399 415.071 174.119C416.555 173.85 418.021 174.413 419.917 176.219L420.607 175.494C418.609 173.592 416.834 172.784 414.893 173.134C413.021 173.473 411.12 174.878 408.81 176.998L409.487 177.735ZM400.409 193.496C402.007 190.097 403.546 186.823 405.061 184.054C406.58 181.274 408.048 179.056 409.487 177.735L408.81 176.998C407.242 178.438 405.71 180.783 404.183 183.574C402.652 186.375 401.099 189.679 399.504 193.07L400.409 193.496ZM384.879 216.085C387.984 214.828 390.749 211.503 393.272 207.404C395.809 203.284 398.166 198.267 400.409 193.496L399.504 193.07C397.255 197.855 394.922 202.817 392.421 206.88C389.905 210.966 387.284 214.032 384.504 215.158L384.879 216.085ZM321.648 217.856C353.59 220.538 369.368 221.873 384.866 216.09L384.517 215.153C369.275 220.84 353.757 219.548 321.732 216.859L321.648 217.856ZM300.299 216.12C308.158 216.723 315.231 217.317 321.648 217.856L321.732 216.859C315.315 216.321 308.239 215.727 300.375 215.123L300.299 216.12ZM230.196 213.159C250.842 213.627 274.94 214.174 300.299 216.12L300.375 215.123C274.985 213.175 250.862 212.628 230.219 212.159L230.196 213.159ZM186.219 211.305C197.445 212.416 212.571 212.759 230.196 213.159L230.219 212.159C212.578 211.759 197.497 211.417 186.318 210.31L186.219 211.305ZM140.3 160.368C141.628 172.494 145.647 184.485 153.072 193.822C160.505 203.169 171.336 209.832 186.219 211.305L186.318 210.31C171.708 208.864 161.123 202.339 153.854 193.199C146.577 184.048 142.607 172.251 141.294 160.259L140.3 160.368ZM140.298 71.851C139.418 92.4434 138.183 141.027 140.3 160.368L141.294 160.259C139.187 141.009 140.416 92.5074 141.297 71.8936L140.298 71.851ZM154.226 66.454C153.09 68.8549 152.361 72.0431 152.1 75.0056L153.096 75.0932C153.35 72.2107 154.059 69.1459 155.13 66.8817L154.226 66.454ZM166.881 58.5756C162.751 59.2626 157.057 60.4709 154.226 66.454L155.13 66.8817C157.723 61.4024 162.913 60.2494 167.045 59.562L166.881 58.5756ZM264.443 54.8664C257.866 54.4522 237.001 54.7932 216.046 55.5287C195.097 56.2639 173.97 57.3963 166.881 58.5756L167.045 59.562C174.054 58.3959 195.104 57.2643 216.081 56.528C237.052 55.792 257.863 55.454 264.381 55.8644L264.443 54.8664ZM264.98 54.8788L264.424 54.8655L264.4 55.8653L264.956 55.8785L264.98 54.8788ZM375.056 80.1179C336.147 56.5637 288.646 55.442 264.98 54.8788L264.956 55.8785C288.647 56.4423 335.886 57.5752 374.538 80.9733L375.056 80.1179ZM395.243 120.022C395.172 114.416 395.085 107.281 392.533 100.133C389.974 92.9634 384.946 85.8034 375.046 80.1121L374.548 80.9791C384.237 86.5489 389.111 93.5181 391.592 100.469C394.08 107.44 394.172 114.416 394.243 120.035L395.243 120.022ZM395.259 121.216C395.253 120.826 395.248 120.428 395.243 120.022L394.243 120.035C394.248 120.441 394.253 120.84 394.259 121.231L395.259 121.216ZM373.157 204.398C377.546 203.299 381.042 199.12 383.836 193.259C386.643 187.373 388.804 179.66 390.454 171.259C393.754 154.454 395.026 134.791 395.259 121.232L394.259 121.215C394.027 134.742 392.757 154.341 389.473 171.067C387.83 179.432 385.688 187.052 382.934 192.829C380.167 198.631 376.846 202.444 372.915 203.428L373.157 204.398ZM318.771 205.602C338.407 207.029 357.177 208.399 373.157 204.398L372.915 203.428C357.121 207.382 338.526 206.035 318.843 204.605L318.771 205.602ZM300.313 204.413C306.52 204.712 312.689 205.16 318.771 205.602L318.843 204.605C312.763 204.163 306.583 203.714 300.362 203.414L300.313 204.413ZM273.82 203.463C284.957 203.823 294.462 204.13 300.313 204.413L300.362 203.414C294.5 203.131 284.986 202.823 273.852 202.464L273.82 203.463ZM186.167 198.531C192.126 199.778 206.213 200.756 222.685 201.549C239.178 202.344 258.118 202.956 273.82 203.463L273.852 202.464C258.149 201.956 239.217 201.344 222.733 200.55C206.229 199.755 192.235 198.779 186.372 197.552L186.167 198.531ZM152.1 158.677C154.202 182.551 169.965 195.14 186.167 198.531L186.372 197.552C170.545 194.239 155.155 181.97 153.096 158.589L152.1 158.677ZM152.098 75.0321C151.405 95.0088 150.433 139.738 152.1 158.677L153.096 158.589C151.435 139.724 152.404 95.0609 153.098 75.0667L152.098 75.0321Z" fill="url(#paint1_linear_2451_630)"/>
<path d="M154.436 66.277C153.333 68.6096 152.613 71.7361 152.356 74.6586C151.663 94.6441 150.692 139.341 152.356 158.242C154.436 181.869 170.013 194.299 186.027 197.65C202.042 201.002 277.72 202.443 300.096 203.522C326.4 204.791 351.994 208.73 372.794 203.522C389.434 199.356 394.052 147.918 394.517 120.833C394.349 109.65 394.853 91.8234 374.555 80.1548C335.775 56.6787 288.404 55.5513 264.726 54.9878L264.17 54.9746C251.075 54.15 180.819 56.3326 166.721 58.678C162.591 59.3652 157.148 60.5459 154.436 66.277Z" fill="url(#paint2_linear_2451_630)" fill-opacity="0.15"/>
<path d="M173.656 87.1865C179.516 87.1865 184.267 82.5969 184.267 76.9353C184.267 71.2738 179.516 66.6841 173.656 66.6841C167.796 66.6841 163.045 71.2738 163.045 76.9353C163.045 82.5969 167.796 87.1865 173.656 87.1865Z" stroke="url(#paint3_linear_2451_630)" stroke-width="2" stroke-linejoin="round"/>
<path d="M173.655 83.5676C177.447 83.5676 180.521 80.5978 180.521 76.9344C180.521 73.2711 177.447 70.3013 173.655 70.3013C169.863 70.3013 166.789 73.2711 166.789 76.9344C166.789 80.5978 169.863 83.5676 173.655 83.5676Z" stroke="url(#paint4_linear_2451_630)" stroke-linejoin="round"/>
<path d="M176.777 76.935C176.777 75.2698 175.38 73.9199 173.656 73.9199M170.535 76.935C170.535 78.6002 171.932 79.9501 173.656 79.9501" stroke="url(#paint5_linear_2451_630)" stroke-linejoin="round"/>
<path d="M201.49 87.1875C207.35 87.1875 212.101 82.5978 212.101 76.9363C212.101 71.2747 207.35 66.6851 201.49 66.6851C195.63 66.6851 190.879 71.2747 190.879 76.9363C190.879 82.5978 195.63 87.1875 201.49 87.1875Z" stroke="url(#paint6_linear_2451_630)" stroke-width="2" stroke-linejoin="round"/>
<path d="M201.489 83.569C205.281 83.569 208.355 80.5992 208.355 76.9359C208.355 73.2725 205.281 70.3027 201.489 70.3027C197.697 70.3027 194.623 73.2725 194.623 76.9359C194.623 80.5992 197.697 83.569 201.489 83.569Z" stroke="url(#paint7_linear_2451_630)" stroke-linejoin="round"/>
<path d="M204.611 76.936C204.611 75.2708 203.214 73.9209 201.49 73.9209M198.369 76.936C198.369 78.6011 199.766 79.951 201.49 79.951" stroke="url(#paint8_linear_2451_630)" stroke-linejoin="round"/>
<path d="M379.232 115.768C375.562 113.478 372.823 107.037 373.115 101.383C373.407 95.7284 376.62 93.0011 380.29 95.2913C383.96 97.5815 386.699 104.022 386.407 109.677C386.115 115.331 382.903 118.059 379.232 115.768Z" stroke="url(#paint9_linear_2451_630)" stroke-width="2" stroke-linejoin="round"/>
<path d="M379.419 112.136C377.044 110.654 375.272 106.486 375.461 102.828C375.65 99.1688 377.729 97.4041 380.104 98.886C382.479 100.368 384.251 104.535 384.062 108.194C383.873 111.853 381.794 113.618 379.419 112.136Z" stroke="url(#paint10_linear_2451_630)" stroke-linejoin="round"/>
<path d="M377.809 104.31C377.895 102.647 378.839 101.845 379.919 102.518M381.718 106.749C381.632 108.412 380.687 109.215 379.608 108.541" stroke="url(#paint11_linear_2451_630)" stroke-linejoin="round"/>
</g>
<defs>
<radialGradient id="paint0_radial_2451_630" cx="0" cy="0" r="1" gradientUnits="userSpaceOnUse" gradientTransform="translate(255.659 73.3817) rotate(5.71059) scale(112.852 108.276)">
<stop stop-color="white"/>
<stop offset="1" stop-color="white" stop-opacity="0"/>
</radialGradient>
<linearGradient id="paint1_linear_2451_630" x1="341.728" y1="24.9186" x2="331.746" y2="186.08" gradientUnits="userSpaceOnUse">
<stop stop-color="#92949A" stop-opacity="0.7"/>
<stop offset="1" stop-color="#060606" stop-opacity="0"/>
</linearGradient>
<linearGradient id="paint2_linear_2451_630" x1="272.977" y1="54.7969" x2="262.895" y2="164.972" gradientUnits="userSpaceOnUse">
<stop stop-color="white"/>
<stop offset="1" stop-color="white" stop-opacity="0"/>
</linearGradient>
<linearGradient id="paint3_linear_2451_630" x1="173.902" y1="93.7098" x2="173.902" y2="65.4187" gradientUnits="userSpaceOnUse">
<stop stop-color="#07090F" stop-opacity="0.2"/>
<stop offset="1" stop-color="#868993"/>
</linearGradient>
<linearGradient id="paint4_linear_2451_630" x1="173.588" y1="90.5655" x2="173.655" y2="70.3013" gradientUnits="userSpaceOnUse">
<stop stop-color="#07090F" stop-opacity="0.2"/>
<stop offset="1" stop-color="#686A70"/>
</linearGradient>
<linearGradient id="paint5_linear_2451_630" x1="173.587" y1="83.6508" x2="173.656" y2="73.9199" gradientUnits="userSpaceOnUse">
<stop stop-color="#07090F" stop-opacity="0.2"/>
<stop offset="1" stop-color="#686A70"/>
</linearGradient>
<linearGradient id="paint6_linear_2451_630" x1="201.736" y1="93.7108" x2="201.736" y2="65.4197" gradientUnits="userSpaceOnUse">
<stop stop-color="#07090F" stop-opacity="0.2"/>
<stop offset="1" stop-color="#868993"/>
</linearGradient>
<linearGradient id="paint7_linear_2451_630" x1="201.422" y1="90.567" x2="201.489" y2="70.3027" gradientUnits="userSpaceOnUse">
<stop stop-color="#07090F" stop-opacity="0.2"/>
<stop offset="1" stop-color="#686A70"/>
</linearGradient>
<linearGradient id="paint8_linear_2451_630" x1="201.421" y1="83.6518" x2="201.49" y2="73.9209" gradientUnits="userSpaceOnUse">
<stop stop-color="#07090F" stop-opacity="0.2"/>
<stop offset="1" stop-color="#686A70"/>
</linearGradient>
<linearGradient id="paint9_linear_2451_630" x1="378.742" y1="122.187" x2="391.841" y2="101.194" gradientUnits="userSpaceOnUse">
<stop stop-color="#07090F" stop-opacity="0.2"/>
<stop offset="1" stop-color="#686A70"/>
</linearGradient>
<linearGradient id="paint10_linear_2451_630" x1="379.101" y1="119.151" x2="388.445" y2="104.045" gradientUnits="userSpaceOnUse">
<stop stop-color="#07090F" stop-opacity="0.2"/>
<stop offset="1" stop-color="#686A70"/>
</linearGradient>
<linearGradient id="paint11_linear_2451_630" x1="379.461" y1="112.264" x2="383.926" y2="104.971" gradientUnits="userSpaceOnUse">
<stop stop-color="#07090F" stop-opacity="0.2"/>
<stop offset="1" stop-color="#686A70"/>
</linearGradient>
</defs>
</svg>
