<svg width="587" height="230" viewBox="0 0 587 230" fill="none" xmlns="http://www.w3.org/2000/svg">
<path d="M444.144 55.5332C364.527 74.1649 213.952 123.816 147.367 146.011V211.548C212.512 191.137 366.995 136.353 444.144 119.731V55.5332Z" fill="url(#paint0_radial_2451_646)" fill-opacity="0.1"/>
<path d="M444.143 55.8244C364.527 74.4561 213.951 124.108 147.366 146.303L84.2227 120.836C162.161 98.5097 335.407 42.8684 400.978 29.8438L444.143 55.8244Z" fill="url(#paint1_radial_2451_646)" fill-opacity="0.15"/>
<path d="M150.786 145.012C217.371 122.817 367.947 73.1656 447.563 54.5339M150.786 145.012L87.6426 119.545C165.581 97.2191 338.827 41.5779 404.398 28.5532L447.563 54.5339M150.786 145.012V210.549C215.931 190.138 370.414 135.354 447.563 118.731V54.5339" stroke="url(#paint2_linear_2451_646)"/>
<path d="M243.658 149.33C244.013 141.839 249.602 133.905 256.141 131.608L310.685 112.448C317.224 110.151 322.238 114.361 321.883 121.851C321.528 129.342 315.939 137.276 309.4 139.573L254.856 158.733C248.317 161.03 243.304 156.82 243.658 149.33Z" stroke="url(#paint3_linear_2451_646)" stroke-width="2" stroke-linejoin="round"/>
<mask id="mask0_2451_646" style="mask-type:alpha" maskUnits="userSpaceOnUse" x="245" y="114" width="75" height="44">
<rect width="85.1017" height="23.0074" rx="11.5037" transform="matrix(0.87205 -0.306332 -0.0473142 0.99888 246.207 137.136)" fill="url(#paint4_linear_2451_646)"/>
</mask>
<g mask="url(#mask0_2451_646)">
<path d="M256.353 144.731C256.277 146.297 254.569 148.126 252.539 148.818C250.51 149.509 248.926 148.8 249.003 147.235C249.079 145.669 250.787 143.84 252.816 143.149C254.846 142.457 256.43 143.166 256.353 144.731Z" stroke="#868993" stroke-linejoin="round"/>
<path d="M262.244 135.058C262.167 136.623 260.46 138.453 258.43 139.144C256.4 139.835 254.817 139.127 254.893 137.561C254.97 135.996 256.677 134.166 258.707 133.475C260.737 132.784 262.32 133.492 262.244 135.058Z" stroke="#868993" stroke-linejoin="round"/>
<path d="M261.481 150.649C261.405 152.214 259.698 154.044 257.668 154.735C255.638 155.426 254.055 154.718 254.131 153.152C254.208 151.587 255.915 149.757 257.945 149.066C259.975 148.375 261.558 149.083 261.481 150.649Z" stroke="#868993" stroke-linejoin="round"/>
<path d="M266.461 141.288C266.385 142.853 264.677 144.683 262.648 145.374C260.618 146.065 259.034 145.357 259.111 143.791C259.187 142.226 260.895 140.396 262.925 139.705C264.954 139.014 266.538 139.722 266.461 141.288Z" stroke="#868993" stroke-linejoin="round"/>
<path d="M272.354 131.617C272.277 133.182 270.57 135.012 268.54 135.703C266.51 136.394 264.927 135.686 265.003 134.12C265.08 132.555 266.787 130.725 268.817 130.034C270.847 129.343 272.43 130.051 272.354 131.617Z" stroke="#868993" stroke-linejoin="round"/>
<path d="M271.592 147.207C271.515 148.772 269.808 150.602 267.778 151.293C265.748 151.984 264.165 151.275 264.241 149.71C264.318 148.144 266.025 146.315 268.055 145.624C270.085 144.932 271.668 145.641 271.592 147.207Z" stroke="#868993" stroke-linejoin="round"/>
<path d="M276.568 137.846C276.491 139.411 274.784 141.241 272.754 141.932C270.724 142.623 269.141 141.915 269.217 140.349C269.294 138.784 271.001 136.954 273.031 136.263C275.061 135.572 276.644 136.28 276.568 137.846Z" stroke="#868993" stroke-linejoin="round"/>
<path d="M282.459 128.174C282.382 129.739 280.675 131.569 278.645 132.26C276.615 132.951 275.032 132.243 275.108 130.677C275.185 129.112 276.892 127.282 278.922 126.591C280.952 125.9 282.535 126.608 282.459 128.174Z" stroke="#868993" stroke-linejoin="round"/>
<path d="M281.696 143.764C281.62 145.329 279.912 147.159 277.883 147.85C275.853 148.541 274.269 147.833 274.346 146.267C274.422 144.702 276.13 142.872 278.16 142.181C280.189 141.49 281.773 142.198 281.696 143.764Z" stroke="#868993" stroke-linejoin="round"/>
<path d="M286.678 134.405C286.601 135.97 284.894 137.8 282.864 138.491C280.834 139.182 279.251 138.474 279.327 136.908C279.404 135.343 281.111 133.513 283.141 132.822C285.171 132.131 286.754 132.839 286.678 134.405Z" stroke="#868993" stroke-linejoin="round"/>
<path d="M292.57 124.732C292.494 126.298 290.786 128.127 288.757 128.819C286.727 129.51 285.143 128.801 285.22 127.236C285.296 125.67 287.004 123.841 289.034 123.15C291.063 122.458 292.647 123.167 292.57 124.732Z" stroke="#868993" stroke-linejoin="round"/>
<path d="M291.805 140.323C291.728 141.888 290.021 143.718 287.991 144.409C285.961 145.1 284.378 144.392 284.454 142.826C284.531 141.261 286.238 139.431 288.268 138.74C290.298 138.049 291.881 138.757 291.805 140.323Z" stroke="#868993" stroke-linejoin="round"/>
<path d="M296.775 130.962C296.699 132.528 294.991 134.357 292.962 135.049C290.932 135.74 289.349 135.031 289.425 133.466C289.501 131.9 291.209 130.071 293.239 129.379C295.268 128.688 296.852 129.397 296.775 130.962Z" stroke="#868993" stroke-linejoin="round"/>
<path d="M302.675 121.289C302.599 122.855 300.891 124.684 298.861 125.375C296.832 126.067 295.248 125.358 295.325 123.793C295.401 122.227 297.109 120.398 299.138 119.706C301.168 119.015 302.752 119.724 302.675 121.289Z" stroke="#868993" stroke-linejoin="round"/>
<path d="M301.913 136.879C301.836 138.445 300.129 140.274 298.099 140.966C296.069 141.657 294.486 140.948 294.562 139.383C294.639 137.817 296.346 135.988 298.376 135.297C300.406 134.605 301.989 135.314 301.913 136.879Z" stroke="#868993" stroke-linejoin="round"/>
<path d="M306.887 127.519C306.811 129.085 305.103 130.914 303.074 131.606C301.044 132.297 299.46 131.588 299.537 130.023C299.613 128.457 301.321 126.628 303.351 125.937C305.38 125.245 306.964 125.954 306.887 127.519Z" stroke="#868993" stroke-linejoin="round"/>
<path d="M312.783 117.848C312.707 119.413 310.999 121.243 308.97 121.934C306.94 122.625 305.356 121.917 305.433 120.351C305.509 118.786 307.217 116.956 309.247 116.265C311.276 115.574 312.86 116.282 312.783 117.848Z" stroke="#868993" stroke-linejoin="round"/>
<path d="M312.021 133.438C311.945 135.004 310.237 136.833 308.207 137.525C306.178 138.216 304.594 137.507 304.671 135.942C304.747 134.376 306.455 132.547 308.484 131.855C310.514 131.164 312.098 131.873 312.021 133.438Z" stroke="#868993" stroke-linejoin="round"/>
<path d="M316.997 124.078C316.921 125.643 315.213 127.473 313.184 128.164C311.154 128.855 309.57 128.147 309.647 126.581C309.723 125.016 311.431 123.186 313.461 122.495C315.49 121.804 317.074 122.513 316.997 124.078Z" stroke="#868993" stroke-linejoin="round"/>
</g>
<path d="M352.702 117.436C355.793 116.446 358.394 113.827 358.51 111.586C358.627 109.345 356.215 108.33 353.123 109.32C350.032 110.309 347.431 112.928 347.315 115.17C347.198 117.411 349.61 118.425 352.702 117.436Z" stroke="url(#paint5_linear_2451_646)" stroke-width="2" stroke-linejoin="round"/>
<defs>
<radialGradient id="paint0_radial_2451_646" cx="0" cy="0" r="1" gradientUnits="userSpaceOnUse" gradientTransform="translate(295.756 99.4458) rotate(-16.4851) scale(154.75 58.6559)">
<stop stop-color="white"/>
<stop offset="1" stop-color="white" stop-opacity="0"/>
</radialGradient>
<radialGradient id="paint1_radial_2451_646" cx="0" cy="0" r="1" gradientUnits="userSpaceOnUse" gradientTransform="translate(294.533 98.6363) rotate(-16.8079) scale(144.106 34.5295)">
<stop stop-color="white"/>
<stop offset="1" stop-color="white" stop-opacity="0"/>
</radialGradient>
<linearGradient id="paint2_linear_2451_646" x1="148.423" y1="146.277" x2="421.205" y2="57.7776" gradientUnits="userSpaceOnUse">
<stop stop-opacity="0"/>
<stop offset="0.489583" stop-color="#595B60"/>
<stop offset="1" stop-opacity="0"/>
</linearGradient>
<linearGradient id="paint3_linear_2451_646" x1="284.359" y1="164.217" x2="269.01" y2="126.259" gradientUnits="userSpaceOnUse">
<stop stop-color="#07080F" stop-opacity="0.2"/>
<stop offset="1" stop-color="#868993"/>
</linearGradient>
<linearGradient id="paint4_linear_2451_646" x1="42.5509" y1="0" x2="42.8132" y2="25.9483" gradientUnits="userSpaceOnUse">
<stop stop-color="#868993"/>
<stop offset="0.7248" stop-color="white" stop-opacity="0.2"/>
</linearGradient>
<linearGradient id="paint5_linear_2451_646" x1="352.685" y1="121.474" x2="347.483" y2="107.14" gradientUnits="userSpaceOnUse">
<stop stop-color="#07090F" stop-opacity="0.2"/>
<stop offset="1" stop-color="#868993"/>
</linearGradient>
</defs>
</svg>
