<svg width="48" height="48" viewBox="0 0 48 48" fill="none" xmlns="http://www.w3.org/2000/svg">
<path d="M48 0H0V48H48V0Z" fill="white" fill-opacity="0.01"/>
<path d="M38.5121 39.4638C34.8466 42.8975 29.9188 45 24.5 45C13.1782 45 4 35.8218 4 24.5C4 13.1782 13.1782 4 24.5 4C30.1148 4 35.2024 6.25731 38.9048 9.91394L24 25L38.5121 39.4638Z" stroke="url(#paint0_linear_1334_127)" stroke-linejoin="round"/>
<path d="M40 28C42.2091 28 44 26.2091 44 24C44 21.7909 42.2091 20 40 20C37.7909 20 36 21.7909 36 24C36 26.2091 37.7909 28 40 28Z" stroke="url(#paint1_linear_1334_127)" stroke-linejoin="round"/>
<path d="M17 13V21" stroke="url(#paint2_radial_1334_127)" stroke-linejoin="round"/>
<path d="M13 17H21" stroke="url(#paint3_radial_1334_127)" stroke-linejoin="round"/>
<defs>
<linearGradient id="paint0_linear_1334_127" x1="21.4524" y1="45" x2="21.4524" y2="4" gradientUnits="userSpaceOnUse">
<stop stop-color="white"/>
<stop offset="1" stop-color="white" stop-opacity="0.2"/>
</linearGradient>
<linearGradient id="paint1_linear_1334_127" x1="40" y1="20" x2="40" y2="28" gradientUnits="userSpaceOnUse">
<stop stop-color="white" stop-opacity="0.2"/>
<stop offset="1" stop-color="white"/>
</linearGradient>
<radialGradient id="paint2_radial_1334_127" cx="0" cy="0" r="1" gradientUnits="userSpaceOnUse" gradientTransform="translate(17 17) rotate(90) scale(4)">
<stop stop-color="white"/>
<stop offset="1" stop-color="white" stop-opacity="0.2"/>
</radialGradient>
<radialGradient id="paint3_radial_1334_127" cx="0" cy="0" r="1" gradientUnits="userSpaceOnUse" gradientTransform="translate(17 17) rotate(90) scale(4)">
<stop stop-color="white"/>
<stop offset="1" stop-color="white" stop-opacity="0.2"/>
</radialGradient>
</defs>
</svg>
