<svg width="150" height="40" viewBox="0 0 150 40" fill="none" xmlns="http://www.w3.org/2000/svg">
<rect x="1" y="3" width="78" height="34" rx="17" stroke="url(#paint0_linear_1371_180)" stroke-linejoin="round"/>
<mask id="mask0_1371_180" style="mask-type:alpha" maskUnits="userSpaceOnUse" x="3" y="5" width="74" height="30">
<rect x="3" y="5" width="74" height="30" rx="15" fill="url(#paint1_linear_1371_180)"/>
</mask>
<g mask="url(#mask0_1371_180)">
<circle cx="7" cy="20" r="3.5" stroke="white" stroke-linejoin="round"/>
<circle cx="13" cy="9" r="3.5" stroke="white" stroke-linejoin="round"/>
<circle cx="13" cy="31" r="3.5" stroke="white" stroke-linejoin="round"/>
<circle cx="18" cy="20" r="3.5" stroke="white" stroke-linejoin="round"/>
<circle cx="24" cy="9" r="3.5" stroke="white" stroke-linejoin="round"/>
<circle cx="24" cy="31" r="3.5" stroke="white" stroke-linejoin="round"/>
<circle cx="29" cy="20" r="3.5" stroke="white" stroke-linejoin="round"/>
<circle cx="35" cy="9" r="3.5" stroke="white" stroke-linejoin="round"/>
<circle cx="35" cy="31" r="3.5" stroke="white" stroke-linejoin="round"/>
<circle cx="40" cy="20" r="3.5" stroke="white" stroke-linejoin="round"/>
<circle cx="46" cy="9" r="3.5" stroke="white" stroke-linejoin="round"/>
<circle cx="46" cy="31" r="3.5" stroke="white" stroke-linejoin="round"/>
<circle cx="51" cy="20" r="3.5" stroke="white" stroke-linejoin="round"/>
<circle cx="57" cy="9" r="3.5" stroke="white" stroke-linejoin="round"/>
<circle cx="57" cy="31" r="3.5" stroke="white" stroke-linejoin="round"/>
<circle cx="62" cy="20" r="3.5" stroke="white" stroke-linejoin="round"/>
<circle cx="68" cy="9" r="3.5" stroke="white" stroke-linejoin="round"/>
<circle cx="68" cy="31" r="3.5" stroke="white" stroke-linejoin="round"/>
<circle cx="73" cy="20" r="3.5" stroke="white" stroke-linejoin="round"/>
</g>
<path d="M126 30C131.523 30 136 25.5228 136 20C136 14.4772 131.523 10 126 10C120.477 10 116 14.4772 116 20C116 25.5228 120.477 30 126 30Z" stroke="url(#paint2_linear_1371_180)" stroke-linejoin="round"/>
<path d="M126 25C128.761 25 131 22.7614 131 20C131 17.2386 128.761 15 126 15C123.239 15 121 17.2386 121 20C121 22.7614 123.239 25 126 25Z" stroke="url(#paint3_linear_1371_180)" stroke-linejoin="round"/>
<defs>
<linearGradient id="paint0_linear_1371_180" x1="40" y1="37" x2="40" y2="3" gradientUnits="userSpaceOnUse">
<stop stop-color="white"/>
<stop offset="1" stop-color="white" stop-opacity="0.2"/>
</linearGradient>
<linearGradient id="paint1_linear_1371_180" x1="40" y1="5" x2="40" y2="35" gradientUnits="userSpaceOnUse">
<stop stop-color="white" stop-opacity="0.2"/>
<stop offset="1" stop-color="white"/>
</linearGradient>
<linearGradient id="paint2_linear_1371_180" x1="126" y1="30" x2="126" y2="10" gradientUnits="userSpaceOnUse">
<stop stop-color="white"/>
<stop offset="1" stop-color="white" stop-opacity="0.2"/>
</linearGradient>
<linearGradient id="paint3_linear_1371_180" x1="126" y1="25" x2="126" y2="15" gradientUnits="userSpaceOnUse">
<stop stop-color="white"/>
<stop offset="1" stop-color="white" stop-opacity="0.2"/>
</linearGradient>
</defs>
</svg>
