<svg width="150" height="40" viewBox="0 0 150 40" fill="none" xmlns="http://www.w3.org/2000/svg">
<path d="M24 27L24 13C24 11.8954 23.1046 11 22 11L6.30338 11C5.74248 11 5.20735 11.2355 4.8285 11.6492L1.52512 15.2559C1.18735 15.6247 0.999999 16.1067 0.999999 16.6067L1 27C1 28.1046 1.89543 29 3 29L22 29C23.1046 29 24 28.1046 24 27Z" stroke="url(#paint0_linear_1371_210)" stroke-linejoin="round"/>
<path d="M17.5 20H21" stroke="url(#paint1_linear_1371_210)" stroke-linejoin="round"/>
<path d="M9 20.0002H12.5M9 23.0002H12.5" stroke="url(#paint2_linear_1371_210)" stroke-linejoin="round"/>
<path d="M13 17.0005V26.0005" stroke="url(#paint3_linear_1371_210)" stroke-linejoin="round"/>
<path d="M17 17.0002V22.5002C17 22.7764 17.2239 23.0002 17.5 23.0002H21" stroke="url(#paint4_linear_1371_210)" stroke-linejoin="round"/>
<path d="M8.5 18.7502C8.5 17.4794 9.46424 16.5002 10.5926 16.5002H19.4074C20.5358 16.5002 21.5 17.4794 21.5 18.7502V24.2502C21.5 25.5211 20.5358 26.5002 19.4074 26.5002H10.5926C9.46424 26.5002 8.5 25.5211 8.5 24.2502V18.7502Z" stroke="url(#paint5_linear_1371_210)" stroke-linejoin="round"/>
<path fill-rule="evenodd" clip-rule="evenodd" d="M125.5 2.5C115.835 2.5 108 10.3351 108 20C108 29.6649 115.835 37.5 125.5 37.5C135.165 37.5 143 29.6649 143 20C143 10.3351 135.165 2.5 125.5 2.5ZM123.719 3.73912C121.596 4.3145 119.66 5.90451 118.142 8.25084C117.515 9.21899 116.965 10.3101 116.506 11.5H121.531C121.71 10.1687 121.93 8.94672 122.185 7.8647C122.551 6.30674 122.995 5.01114 123.506 4.09289C123.574 3.97142 123.644 3.853 123.719 3.73912ZM122.54 11.5C122.712 10.2506 122.92 9.10622 123.158 8.09373C123.516 6.57529 123.934 5.38127 124.38 4.57902C124.85 3.73409 125.249 3.5 125.5 3.5C125.751 3.5 126.15 3.73409 126.62 4.57902C127.066 5.38127 127.484 6.57529 127.842 8.09373C128.08 9.10622 128.288 10.2506 128.46 11.5H122.54ZM121.406 12.5H116.151C115.462 14.6075 115.053 16.9802 115.005 19.5H121.002C121.019 16.9996 121.162 14.6291 121.406 12.5ZM122.002 19.5C122.019 16.9858 122.165 14.6139 122.413 12.5H128.587C128.835 14.6139 128.981 16.9858 128.998 19.5H122.002ZM121.002 20.5H115.005C115.053 23.0198 115.462 25.3925 116.151 27.5H121.406C121.162 25.3709 121.019 23.0004 121.002 20.5ZM122.413 27.5C122.165 25.3861 122.019 23.0142 122.002 20.5H128.998C128.981 23.0142 128.835 25.3861 128.587 27.5H122.413ZM121.531 28.5H116.506C116.965 29.6899 117.515 30.781 118.142 31.7492C119.66 34.0955 121.596 35.6855 123.719 36.2609C123.644 36.147 123.574 36.0286 123.506 35.9071C122.995 34.9889 122.551 33.6933 122.185 32.1353C121.93 31.0533 121.71 29.8313 121.531 28.5ZM125.5 36.5C125.249 36.5 124.85 36.2659 124.38 35.421C123.934 34.6187 123.516 33.4247 123.158 31.9063C122.92 30.8938 122.712 29.7494 122.54 28.5H128.46C128.288 29.7494 128.08 30.8938 127.842 31.9063C127.484 33.4247 127.066 34.6187 126.62 35.421C126.15 36.2659 125.751 36.5 125.5 36.5ZM127.281 36.2609C129.404 35.6855 131.34 34.0955 132.858 31.7492C133.485 30.781 134.035 29.6899 134.494 28.5H129.469C129.29 29.8313 129.07 31.0533 128.815 32.1353C128.449 33.6933 128.005 34.9889 127.494 35.9071C127.426 36.0286 127.356 36.147 127.281 36.2609ZM129.594 27.5H134.849C135.538 25.3925 135.947 23.0198 135.995 20.5H129.998C129.981 23.0004 129.838 25.3709 129.594 27.5ZM129.998 19.5H135.995C135.947 16.9802 135.538 14.6075 134.849 12.5H129.594C129.838 14.6291 129.981 16.9996 129.998 19.5ZM129.469 11.5H134.494C134.035 10.3101 133.485 9.21899 132.858 8.25084C131.34 5.90451 129.404 4.3145 127.281 3.73912C127.356 3.853 127.426 3.97142 127.494 4.09289C128.005 5.01114 128.449 6.30674 128.815 7.8647C129.07 8.94672 129.29 10.1687 129.469 11.5ZM139.645 28.5C137.615 31.8701 134.416 34.4557 130.608 35.6941C131.77 34.8195 132.813 33.6607 133.698 32.2924C134.427 31.166 135.055 29.8906 135.561 28.5H139.645ZM140.201 27.5H135.899C136.562 25.3653 136.95 22.9956 136.995 20.5H141.993C141.918 23.0153 141.28 25.3892 140.201 27.5ZM141.993 19.5H136.995C136.95 17.0044 136.562 14.6347 135.899 12.5H140.201C141.28 14.6108 141.918 16.9847 141.993 19.5ZM139.645 11.5H135.561C135.055 10.1094 134.427 8.83399 133.698 7.70759C132.813 6.33933 131.77 5.1805 130.608 4.30589C134.416 5.54433 137.615 8.1299 139.645 11.5ZM111.355 11.5C113.385 8.1299 116.584 5.54433 120.392 4.30589C119.23 5.1805 118.187 6.33933 117.302 7.70759C116.573 8.83399 115.945 10.1094 115.439 11.5H111.355ZM110.799 12.5H115.101C114.438 14.6347 114.05 17.0044 114.005 19.5H109.007C109.082 16.9847 109.72 14.6108 110.799 12.5ZM109.007 20.5H114.005C114.05 22.9956 114.438 25.3653 115.101 27.5H110.799C109.72 25.3892 109.082 23.0153 109.007 20.5ZM111.355 28.5H115.439C115.945 29.8906 116.573 31.166 117.302 32.2924C118.187 33.6607 119.23 34.8195 120.392 35.6941C116.584 34.4557 113.385 31.8701 111.355 28.5Z" fill="url(#paint6_linear_1371_210)"/>
<path d="M29 21H103" stroke="url(#paint7_radial_1371_210)" stroke-dasharray="1 3"/>
<defs>
<linearGradient id="paint0_linear_1371_210" x1="13.9323" y1="28.9984" x2="13.9323" y2="10.9984" gradientUnits="userSpaceOnUse">
<stop stop-color="white"/>
<stop offset="1" stop-color="white" stop-opacity="0.2"/>
</linearGradient>
<linearGradient id="paint1_linear_1371_210" x1="19.3694" y1="32.3506" x2="19.3694" y2="13.3506" gradientUnits="userSpaceOnUse">
<stop stop-color="white"/>
<stop offset="1" stop-color="white" stop-opacity="0.2"/>
</linearGradient>
<linearGradient id="paint2_linear_1371_210" x1="11" y1="26.2502" x2="11" y2="16.7502" gradientUnits="userSpaceOnUse">
<stop stop-color="white"/>
<stop offset="1" stop-color="white" stop-opacity="0.2"/>
</linearGradient>
<linearGradient id="paint3_linear_1371_210" x1="13.1504" y1="26.2028" x2="13.1504" y2="16.7978" gradientUnits="userSpaceOnUse">
<stop stop-color="white"/>
<stop offset="1" stop-color="white" stop-opacity="0.2"/>
</linearGradient>
<linearGradient id="paint4_linear_1371_210" x1="19" y1="26.2502" x2="19" y2="17.1502" gradientUnits="userSpaceOnUse">
<stop stop-color="white"/>
<stop offset="1" stop-color="white" stop-opacity="0.2"/>
</linearGradient>
<linearGradient id="paint5_linear_1371_210" x1="15" y1="26.7252" x2="15" y2="16.2752" gradientUnits="userSpaceOnUse">
<stop stop-color="white"/>
<stop offset="1" stop-color="white" stop-opacity="0.2"/>
</linearGradient>
<linearGradient id="paint6_linear_1371_210" x1="125.5" y1="2.5" x2="125.5" y2="37.5" gradientUnits="userSpaceOnUse">
<stop stop-color="white" stop-opacity="0.2"/>
<stop offset="1" stop-color="white"/>
</linearGradient>
<radialGradient id="paint7_radial_1371_210" cx="0" cy="0" r="1" gradientUnits="userSpaceOnUse" gradientTransform="translate(64 21) rotate(180) scale(35 2590)">
<stop stop-color="white"/>
<stop offset="1" stop-color="white" stop-opacity="0.2"/>
</radialGradient>
</defs>
</svg>
