<svg width="24" height="24" viewBox="0 0 24 24" fill="none" xmlns="http://www.w3.org/2000/svg">
<path fill-rule="evenodd" clip-rule="evenodd" d="M10.5452 7.64285C10.9486 9.10062 10.4948 10.6214 9.5005 11.5588C9.31197 11.7366 9.25121 12.0239 9.39933 12.2365C9.71461 12.6891 10.0732 13.1194 10.4752 13.5217C10.8767 13.9235 11.3059 14.2819 11.7574 14.5971C11.9706 14.7459 12.2588 14.6841 12.4363 14.4941C13.3721 13.4918 14.8974 13.033 16.3591 13.4382C18.3294 13.9843 19.4384 15.8932 18.836 17.7018C17.071 23.0017 10.2755 17.7486 8.26351 15.7351C6.20294 13.673 1.03053 6.91654 6.28475 5.16411C8.09201 4.5613 9.99946 5.67108 10.5452 7.64285Z" stroke="url(#paint0_linear_3201_72)" stroke-linejoin="round"/>
<defs>
<linearGradient id="paint0_linear_3201_72" x1="11.5" y1="5" x2="11.5" y2="20" gradientUnits="userSpaceOnUse">
<stop stop-color="white"/>
<stop offset="1" stop-color="white" stop-opacity="0.2"/>
</linearGradient>
</defs>
</svg>
