<svg width="49" height="48" viewBox="0 0 49 48" fill="none" xmlns="http://www.w3.org/2000/svg">
<g clip-path="url(#clip0_3105_180)">
<path d="M29.1382 33.7464C27.7635 34.3273 26.2523 34.6484 24.666 34.6484C18.3147 34.6484 13.166 29.4997 13.166 23.1484C13.166 16.7972 18.3147 11.6484 24.666 11.6484C31.0173 11.6484 36.166 16.7972 36.166 23.1484C36.166 25.2088 35.6242 27.1426 34.6753 28.8151" stroke="url(#paint0_linear_3105_180)" stroke-linejoin="round"/>
<path d="M38.8684 33.3115C40.0075 31.7225 40.8864 29.9344 41.4431 28.0095C41.615 27.415 41.701 27.1177 41.8971 26.9515C42.0931 26.7853 42.3793 26.7516 42.9517 26.6843L46.1614 26.3066C46.8774 26.2224 47.2355 26.1803 47.4507 25.9382C47.666 25.6961 47.666 25.3356 47.666 24.6146V23.3854C47.666 22.6644 47.666 22.3039 47.4507 22.0618C47.2355 21.8197 46.8774 21.7776 46.1614 21.6933L43.3677 21.3646C42.7365 21.2903 42.4208 21.2532 42.2167 21.063C42.0126 20.8729 41.9489 20.5376 41.8215 19.8672C41.4532 17.9299 40.7652 16.106 39.8141 14.4526C39.4998 13.9063 39.3427 13.6331 39.3618 13.3726C39.3808 13.1121 39.5628 12.8816 39.9266 12.4206L41.4966 10.4315C41.9433 9.8657 42.1666 9.58277 42.1476 9.2594C42.1286 8.93602 41.8738 8.68114 41.3641 8.17137L40.495 7.30214C39.9852 6.79225 39.7303 6.5373 39.4068 6.51834C39.0834 6.49937 38.8004 6.72277 38.2345 7.16957L36.4735 8.55987C35.9797 8.94969 35.7329 9.1446 35.4565 9.15574C35.18 9.16688 34.8991 8.97969 34.3372 8.60531C32.6271 7.46589 30.7048 6.61997 28.6418 6.13966C28.0046 5.99129 27.6859 5.9171 27.5064 5.71632C27.3269 5.51554 27.2913 5.21297 27.2201 4.60784L26.9727 2.50465C26.8884 1.7886 26.8463 1.43057 26.6042 1.21529C26.3621 1 26.0016 1 25.2806 1H24.0514C23.3304 1 22.9699 1 22.7278 1.21529C22.4857 1.43057 22.4436 1.7886 22.3594 2.50465L22.112 4.60784C22.0408 5.21297 22.0052 5.51554 21.8256 5.71632C21.6461 5.9171 21.3275 5.99129 20.6902 6.13966C18.6272 6.61998 16.7049 7.4659 14.9948 8.60533C14.4329 8.9797 14.152 9.16689 13.8756 9.15575C13.5992 9.14462 13.3523 8.94972 12.8585 8.55993L11.0975 7.16971C10.5316 6.72294 10.2487 6.49955 9.92522 6.51853C9.60179 6.5375 9.34689 6.79244 8.83709 7.30231L7.96815 8.17137C7.45836 8.68123 7.20346 8.93616 7.18453 9.25959C7.1656 9.58301 7.38901 9.86594 7.83583 10.4318L9.40588 12.4202C9.76991 12.8812 9.95192 13.1117 9.97101 13.3722C9.99011 13.6328 9.83295 13.906 9.51862 14.4524C8.56736 16.1058 7.87901 17.9298 7.51061 19.8671C7.38311 20.5377 7.31936 20.8729 7.11527 21.0631C6.91118 21.2532 6.59556 21.2903 5.96431 21.3646L3.17062 21.6933C2.45459 21.7776 2.09657 21.8197 1.88129 22.0618C1.66602 22.3039 1.66602 22.6644 1.66602 23.3854V24.6146C1.66602 25.3356 1.66602 25.6961 1.8813 25.9382C2.09658 26.1803 2.45461 26.2224 3.17066 26.3066L6.38022 26.6842C6.95264 26.7516 7.23885 26.7853 7.43491 26.9515C7.63097 27.1177 7.71692 27.4149 7.88881 28.0094C8.37599 29.6943 9.11034 31.2742 10.0498 32.7077C10.4171 33.268 10.6007 33.5482 10.5886 33.8228C10.5764 34.0974 10.383 34.3423 9.9962 34.8322L7.83577 37.5684C7.38898 38.1343 7.16558 38.4172 7.18452 38.7406C7.20345 39.064 7.45834 39.319 7.96812 39.8288L8.83706 40.6979C9.34687 41.2078 9.60178 41.4627 9.92522 41.4817C10.2487 41.5006 10.5316 41.2772 11.0975 40.8304L14.0698 38.4839C14.527 38.123 14.7556 37.9425 15.0142 37.9225C15.2729 37.9025 15.545 38.0563 16.0892 38.3637C17.4568 39.1362 18.9392 39.7296 20.5042 40.1122C21.1324 40.2658 21.4465 40.3426 21.6232 40.5424C21.7999 40.7423 21.8351 41.0413 21.9055 41.6395L22.3593 45.4954C22.4436 46.2114 22.4857 46.5695 22.7278 46.7847C22.9699 47 23.3304 47 24.0513 47H25.2807C26.0017 47 26.3621 47 26.6042 46.7847C26.8463 46.5695 26.8885 46.2115 26.9727 45.4954L27.4265 41.6395C27.4969 41.0413 27.5321 40.7423 27.7088 40.5424C27.8855 40.3426 28.1997 40.2658 28.828 40.1122C30.6172 39.6748 32.2982 38.9617 33.8234 38.0205" stroke="url(#paint1_linear_3105_180)" stroke-linejoin="round"/>
<path d="M17.0174 25.7472C16.6451 24.6801 16.459 24.1465 16.9152 23.7689C17.3714 23.3913 17.9334 23.7158 19.0575 24.3648L20.4145 25.1482C21.4072 25.7214 21.9036 26.0079 22.3818 26.1045C23.2962 26.2891 24.2443 26.035 24.944 25.4179C25.3099 25.0952 25.5964 24.5989 26.1696 23.6062C26.7427 22.6135 27.0293 22.1172 27.1258 21.6389C27.3104 20.7245 27.0563 19.7764 26.4393 19.0767C26.1165 18.7108 25.6202 18.4243 24.6275 17.8512L23.9562 17.4636C22.7214 16.7506 22.104 16.3942 22.254 15.7747C22.404 15.1552 23.0256 15.125 24.2688 15.0648C24.4007 15.0584 24.5335 15.0552 24.667 15.0552C29.1364 15.0552 32.7596 18.6784 32.7596 23.1478C32.7596 23.8057 32.6811 24.4452 32.5329 25.0576C32.3984 25.6136 32.3312 25.8916 32.384 26.0973C32.4369 26.3031 32.6012 26.483 32.9299 26.8428L46.2082 41.3794C47.2707 42.5425 47.2301 44.3356 46.1162 45.4495C45.0023 46.5634 43.2092 46.604 42.0461 45.5415L26.859 31.6689C26.5631 31.3987 26.4152 31.2635 26.246 31.2062C26.0768 31.1489 25.8434 31.1691 25.3766 31.2097C25.1428 31.23 24.9061 31.2404 24.667 31.2404C21.1549 31.2404 18.1202 28.9088 17.0174 25.7472Z" stroke="url(#paint2_linear_3105_180)" stroke-linejoin="round"/>
</g>
<defs>
<linearGradient id="paint0_linear_3105_180" x1="24.666" y1="34.6484" x2="24.666" y2="-3.09515" gradientUnits="userSpaceOnUse">
<stop stop-color="white"/>
<stop offset="1" stop-color="white" stop-opacity="0.2"/>
</linearGradient>
<linearGradient id="paint1_linear_3105_180" x1="24.666" y1="47.5" x2="24.666" y2="1" gradientUnits="userSpaceOnUse">
<stop stop-color="white"/>
<stop offset="1" stop-color="white" stop-opacity="0.2"/>
</linearGradient>
<linearGradient id="paint2_linear_3105_180" x1="31.8128" y1="34.5" x2="31.8128" y2="-9" gradientUnits="userSpaceOnUse">
<stop stop-color="white"/>
<stop offset="1" stop-color="white" stop-opacity="0.2"/>
</linearGradient>
<clipPath id="clip0_3105_180">
<rect width="48" height="48" fill="white" transform="translate(0.666016)"/>
</clipPath>
</defs>
</svg>
