<svg width="467" height="220" viewBox="0 0 467 220" fill="none" xmlns="http://www.w3.org/2000/svg">
<path d="M73.8398 28.434V27.434H73.3314L73.0318 27.8448L73.8398 28.434ZM0.129826 129.522L-0.678185 128.933L-0.899731 129.237L-0.866188 129.611L0.129826 129.522ZM2.93782 160.878L1.94181 160.967L2.02338 161.878H2.93782V160.878ZM90.4538 160.878H91.4538V159.878H90.4538V160.878ZM90.4538 192H89.4538V193H90.4538V192ZM120.874 192V193H121.874V192H120.874ZM120.874 160.878V159.878H119.874V160.878H120.874ZM140.062 160.878V161.878H141.062V160.878H140.062ZM140.062 130.926H141.062V129.926H140.062V130.926ZM120.874 130.926H119.874V131.926H120.874V130.926ZM120.874 28.434H121.874V27.434H120.874V28.434ZM34.9958 130.926L34.1887 130.336L33.0254 131.926H34.9958V130.926ZM90.4538 55.11H91.4538V52.0491L89.6467 54.5196L90.4538 55.11ZM90.4538 130.926V131.926H91.4538V130.926H90.4538ZM73.0318 27.8448L-0.678185 128.933L0.937832 130.111L74.6478 29.0232L73.0318 27.8448ZM-0.866188 129.611L1.94181 160.967L3.93384 160.789L1.12584 129.433L-0.866188 129.611ZM2.93782 161.878H90.4538V159.878H2.93782V161.878ZM89.4538 160.878V192H91.4538V160.878H89.4538ZM90.4538 193H120.874V191H90.4538V193ZM121.874 192V160.878H119.874V192H121.874ZM120.874 161.878H140.062V159.878H120.874V161.878ZM141.062 160.878V130.926H139.062V160.878H141.062ZM140.062 129.926H120.874V131.926H140.062V129.926ZM121.874 130.926V28.434H119.874V130.926H121.874ZM120.874 27.434H73.8398V29.434H120.874V27.434ZM35.8029 131.516L91.2609 55.7004L89.6467 54.5196L34.1887 130.336L35.8029 131.516ZM89.4538 55.11V130.926H91.4538V55.11H89.4538ZM90.4538 129.926H34.9958V131.926H90.4538V129.926ZM192.708 98.166C192.708 83.6118 197.763 72.8266 205.267 65.6881C212.785 58.5373 222.825 54.9848 232.888 55.0277C242.951 55.0706 252.995 58.709 260.516 65.8846C268.024 73.0476 273.076 83.7908 273.076 98.166H275.076C275.076 83.2911 269.833 72.0092 261.896 64.4375C253.973 56.8784 243.425 53.0726 232.896 53.0278C222.368 52.9829 211.815 56.6991 203.889 64.239C195.949 71.7914 190.708 83.1191 190.708 98.166H192.708ZM273.076 98.166V121.8H275.076V98.166H273.076ZM273.076 121.8C273.076 136.414 268.02 147.289 260.513 154.512C252.993 161.747 242.953 165.377 232.892 165.377C222.832 165.377 212.791 161.747 205.272 154.512C197.764 147.289 192.708 136.414 192.708 121.8H190.708C190.708 136.904 195.948 148.317 203.885 155.953C211.809 163.577 222.361 167.377 232.892 167.377C243.424 167.377 253.975 163.577 261.9 155.953C269.836 148.317 275.076 136.904 275.076 121.8H273.076ZM192.708 121.8V98.166H190.708V121.8H192.708ZM160.054 121.8C160.054 146.517 169.14 165.118 182.832 177.527C196.507 189.922 214.715 196.086 232.893 196.071C251.071 196.056 269.278 189.862 282.953 177.461C296.644 165.045 305.73 146.459 305.73 121.8H303.73C303.73 145.93 294.857 163.965 281.609 175.98C268.344 188.01 250.632 194.057 232.891 194.071C215.15 194.086 197.439 188.068 184.175 176.045C170.928 164.039 162.054 145.989 162.054 121.8H160.054ZM305.73 121.8V98.166H303.73V121.8H305.73ZM305.73 98.166C305.73 73.5066 296.644 54.9211 282.953 42.5047C269.278 30.1037 251.071 23.9095 232.893 23.8947C214.715 23.8799 196.507 30.0444 182.832 42.4387C169.14 54.8483 160.054 73.4488 160.054 98.166H162.054C162.054 73.9772 170.928 55.9274 184.175 43.9206C197.439 31.8984 215.15 25.8803 232.891 25.8947C250.632 25.9092 268.344 31.9562 281.609 43.9862C294.857 56.0009 303.73 74.0364 303.73 98.166H305.73ZM160.054 98.166V121.8H162.054V98.166H160.054ZM400.27 28.434V27.434H399.761L399.462 27.8448L400.27 28.434ZM326.56 129.522L325.752 128.933L325.53 129.237L325.564 129.611L326.56 129.522ZM329.368 160.878L328.372 160.967L328.453 161.878H329.368V160.878ZM416.884 160.878H417.884V159.878H416.884V160.878ZM416.884 192H415.884V193H416.884V192ZM447.304 192V193H448.304V192H447.304ZM447.304 160.878V159.878H446.304V160.878H447.304ZM466.492 160.878V161.878H467.492V160.878H466.492ZM466.492 130.926H467.492V129.926H466.492V130.926ZM447.304 130.926H446.304V131.926H447.304V130.926ZM447.304 28.434H448.304V27.434H447.304V28.434ZM361.426 130.926L360.619 130.336L359.455 131.926H361.426V130.926ZM416.884 55.11H417.884V52.0491L416.077 54.5196L416.884 55.11ZM416.884 130.926V131.926H417.884V130.926H416.884ZM399.462 27.8448L325.752 128.933L327.368 130.111L401.078 29.0232L399.462 27.8448ZM325.564 129.611L328.372 160.967L330.364 160.789L327.556 129.433L325.564 129.611ZM329.368 161.878H416.884V159.878H329.368V161.878ZM415.884 160.878V192H417.884V160.878H415.884ZM416.884 193H447.304V191H416.884V193ZM448.304 192V160.878H446.304V192H448.304ZM447.304 161.878H466.492V159.878H447.304V161.878ZM467.492 160.878V130.926H465.492V160.878H467.492ZM466.492 129.926H447.304V131.926H466.492V129.926ZM448.304 130.926V28.434H446.304V130.926H448.304ZM447.304 27.434H400.27V29.434H447.304V27.434ZM362.233 131.516L417.691 55.7004L416.077 54.5196L360.619 130.336L362.233 131.516ZM415.884 55.11V130.926H417.884V55.11H415.884ZM416.884 129.926H361.426V131.926H416.884V129.926Z" fill="url(#paint0_linear_2754_109)"/>
<defs>
<linearGradient id="paint0_linear_2754_109" x1="235.5" y1="40" x2="235.5" y2="147.667" gradientUnits="userSpaceOnUse">
<stop stop-color="white"/>
<stop offset="1" stop-color="white" stop-opacity="0"/>
</linearGradient>
</defs>
</svg>
