<svg width="111" height="24" viewBox="0 0 111 24" fill="none" xmlns="http://www.w3.org/2000/svg">
<g opacity="0.5">
<path d="M2.6183 5.80821C2.61797 5.53002 2.6178 5.39093 2.70303 5.30444C2.78826 5.21795 2.92547 5.21795 3.19989 5.21795H5.81809C8.81684 5.21795 10.3162 5.21795 11.3749 5.97935C11.7485 6.24802 12.0746 6.57863 12.3397 6.95728C13.0406 7.95855 13.0875 9.34871 13.0906 11.9995C13.091 12.2777 13.0911 12.4168 13.0059 12.5033C12.9207 12.5897 12.7835 12.5897 12.509 12.5897H9.89085C6.8921 12.5897 5.39272 12.5897 4.33404 11.8283C3.96048 11.5597 3.6343 11.2291 3.36925 10.8504C2.66835 9.84914 2.62144 8.45898 2.6183 5.80821Z" fill="white"/>
<path d="M0.581695 23.5C0.307324 23.5 0.170138 23.5 0.0849183 23.4136C-0.000301311 23.3271 -0.000193952 23.1879 2.0764e-05 22.9095C0.00248646 19.7122 0.0461658 18.046 0.819938 16.8148C1.23078 16.1612 1.77787 15.6066 2.42276 15.1902C3.71 14.359 5.47937 14.359 9.01811 14.359H12.509C12.7834 14.359 12.9206 14.359 13.0058 14.4454C13.091 14.5319 13.0909 14.6711 13.0907 14.9495C13.0883 18.1468 13.0446 19.813 12.2708 21.0441C11.86 21.6978 11.3129 22.2523 10.668 22.6688C9.38074 23.5 7.61137 23.5 4.07263 23.5H0.581695Z" fill="white"/>
<path d="M14.8368 14.9488C14.8361 14.6711 14.8358 14.5322 14.921 14.4456C15.0063 14.359 15.1436 14.359 15.4182 14.359H17.1636C19.3453 14.359 20.4361 14.359 21.2008 14.9221C21.4478 15.104 21.665 15.3241 21.8444 15.5745C22.3483 16.2774 22.3952 17.2522 22.3996 19.0769C22.4002 19.3546 22.4006 19.4934 22.3153 19.58C22.2301 19.6667 22.0928 19.6667 21.8182 19.6667H20.0727C17.8911 19.6667 16.8002 19.6667 16.0355 19.1035C15.7885 18.9216 15.5714 18.7015 15.3919 18.4512C14.8881 17.7482 14.8412 16.7735 14.8368 14.9488Z" fill="white"/>
<path d="M15.4182 12.5897C15.1438 12.5897 15.0067 12.5897 14.9214 12.5033C14.8362 12.4169 14.8363 12.2774 14.8364 11.9984C14.8383 7.70036 14.8815 5.4823 15.8892 3.83983C16.4547 2.91801 17.2219 2.14041 18.1313 1.56718C19.8244 0.5 22.1375 0.5 26.7637 0.5H31.4183C31.6926 0.5 31.8297 0.5 31.915 0.586412C32.0002 0.672823 32.0001 0.812315 32 1.0913C31.9981 5.38938 31.9549 7.60745 30.9472 9.24992C30.3817 10.1717 29.6145 10.9493 28.7051 11.5226C27.012 12.5897 24.6989 12.5897 20.0727 12.5897H15.4182Z" fill="white"/>
<path d="M39.8 14.652H43.032C43.896 14.652 45.128 15.18 45.128 16.188C45.128 17.244 43.896 17.532 43.032 17.532H39.8V14.652ZM39.8 10.22H43.032C44.376 10.22 44.792 11.084 44.792 11.596C44.792 12.236 44.36 12.796 43.032 12.796H39.8V10.22ZM43.032 8.3C41.256 8.3 39.48 8.3 37.72 8.3V19.5C39.496 19.5 41.256 19.5 43.032 19.5C45.352 19.5 47.224 18.7 47.224 16.204C47.224 15.5 46.744 14.108 45.432 13.708C46.472 13.244 46.888 12.412 46.888 11.548C46.888 9.292 45.24 8.3 43.032 8.3ZM48.5619 8.316V19.5H50.4979V8.316H48.5619ZM55.9145 11.452C53.4025 11.452 51.8345 13.308 51.8345 15.564C51.8345 17.836 53.3705 19.676 55.9305 19.676C58.4905 19.676 60.0425 17.836 60.0425 15.564C60.0425 13.308 58.4265 11.452 55.9145 11.452ZM55.9305 13.228C57.2425 13.228 58.0745 14.38 58.0745 15.564C58.0745 16.764 57.3545 17.884 55.9305 17.884C54.5065 17.884 53.7865 16.764 53.7865 15.564C53.7865 14.38 54.5225 13.228 55.9305 13.228ZM65.102 11.452C62.59 11.452 61.022 13.308 61.022 15.564C61.022 17.836 62.558 19.676 65.118 19.676C67.678 19.676 69.23 17.836 69.23 15.564C69.23 13.308 67.614 11.452 65.102 11.452ZM65.118 13.228C66.43 13.228 67.262 14.38 67.262 15.564C67.262 16.764 66.542 17.884 65.118 17.884C63.694 17.884 62.974 16.764 62.974 15.564C62.974 14.38 63.71 13.228 65.118 13.228ZM77.7775 19.5V15.276C77.7775 14.236 78.4335 13.324 79.4895 13.324C80.5455 13.324 80.9775 14.204 80.9775 15.244V19.5H82.9295V15.244C82.9295 12.876 81.8255 11.5 79.5855 11.5C78.5615 11.5 77.6495 11.82 76.9455 12.94C76.4975 11.852 75.5535 11.468 74.6095 11.468C73.8575 11.468 72.9455 11.756 72.5295 12.556L72.3855 11.596H70.5775V19.5H72.5295V15.276C72.5295 14.236 73.1535 13.292 74.2095 13.292C75.2815 13.292 75.8255 14.236 75.8255 15.276V19.5H77.7775ZM93.5636 8.076C89.6916 8.076 87.8036 11.036 87.8036 13.98C87.8036 16.924 89.6276 19.756 93.5636 19.756C97.4996 19.756 99.2756 16.86 99.3076 13.964C99.3396 11.036 97.4196 8.076 93.5636 8.076ZM93.5636 9.996C96.2036 9.996 97.2596 12.108 97.2276 13.996C97.1956 15.836 96.2036 17.82 93.5636 17.82C90.9236 17.82 89.9316 15.852 89.8836 14.012C89.8356 12.124 90.9236 9.996 93.5636 9.996ZM109.767 10.14C108.919 8.412 107.111 7.916 105.367 7.916C103.303 7.932 101.031 8.876 101.031 11.18C101.031 13.692 103.143 14.3 105.431 14.572C106.919 14.732 108.023 15.164 108.023 16.22C108.023 17.436 106.775 17.9 105.447 17.9C104.087 17.9 102.791 17.356 102.295 16.124L100.535 17.036C101.367 19.084 103.127 19.788 105.415 19.788C107.911 19.788 110.119 18.716 110.119 16.22C110.119 13.548 107.943 12.94 105.607 12.652C104.263 12.492 103.111 12.22 103.111 11.244C103.111 10.412 103.863 9.756 105.431 9.756C106.647 9.756 107.703 10.364 108.087 11.004L109.767 10.14Z" fill="white"/>
</g>
</svg>
