<svg width="84" height="59" viewBox="0 0 84 59" fill="none" xmlns="http://www.w3.org/2000/svg">
<path d="M7.71151 13.617C7.71065 12.9034 7.71022 12.5466 7.93231 12.3247C8.15439 12.1028 8.51195 12.1028 9.22705 12.1028H16.0496C23.8639 12.1028 27.771 12.1028 30.5297 14.056C31.5032 14.7452 32.3531 15.5933 33.0438 16.5646C34.8702 19.1331 34.9925 22.6991 35.0007 29.4989C35.0015 30.2125 35.0019 30.5693 34.7799 30.7912C34.5578 31.0131 34.2002 31.0131 33.4851 31.0131H26.6625C18.8483 31.0131 14.9412 31.0131 12.1824 29.0599C11.209 28.3707 10.359 27.5226 9.66836 26.5513C7.84194 23.9828 7.71969 20.4168 7.71151 13.617Z" fill="white"/>
<path d="M2.40447 59.0003C1.68951 59.0003 1.33202 59.0003 1.10995 58.7785C0.887887 58.5567 0.888166 58.1996 0.888726 57.4854C0.895151 49.2836 1.00897 45.0095 3.02529 41.8514C4.09587 40.1746 5.52149 38.7521 7.20196 37.6838C10.5563 35.5515 15.167 35.5515 24.3883 35.5515H33.4851C34.2001 35.5515 34.5576 35.5515 34.7796 35.7733C35.0017 35.9951 35.0014 36.3522 35.0009 37.0664C34.9944 45.2682 34.8806 49.5423 32.8643 52.7004C31.7937 54.3772 30.3681 55.7997 28.6876 56.868C25.3333 59.0003 20.7226 59.0003 11.5012 59.0003H2.40447Z" fill="white"/>
<path d="M39.001 37.0642C38.9992 36.3519 38.9984 35.9957 39.2205 35.7735C39.4426 35.5513 39.8004 35.5513 40.5159 35.5513H45.0643C50.7494 35.5513 53.5919 35.5513 55.5846 36.9959C56.2282 37.4624 56.7941 38.0272 57.2617 38.6693C58.5746 40.4724 58.6969 42.973 58.7083 47.6537C58.71 48.3661 58.7109 48.7223 58.4887 48.9445C58.2666 49.1667 57.9088 49.1667 57.1933 49.1667H52.6449C46.9599 49.1667 44.1173 49.1667 42.1246 47.7221C41.4811 47.2555 40.9151 46.6908 40.4476 46.0486C39.1346 44.2455 39.0123 41.745 39.001 37.0642Z" fill="white"/>
<path d="M40.5159 31.0128C39.8011 31.0128 39.4436 31.0128 39.2216 30.7912C38.9995 30.5695 38.9997 30.2117 39 29.496C39.0048 18.4705 39.1176 12.7807 41.7433 8.56738C43.217 6.20272 45.2161 4.20801 47.5859 2.73756C51.9979 0 58.0254 0 70.0804 0H82.2095C82.9243 0 83.2817 0 83.5038 0.221665C83.7258 0.443329 83.7257 0.801156 83.7254 1.51681C83.7205 12.5423 83.6078 18.2321 80.982 22.4454C79.5084 24.8101 77.5093 26.8048 75.1395 28.2753C70.7275 31.0128 64.7 31.0128 52.6449 31.0128H40.5159Z" fill="white"/>
</svg>
