<svg width="21" height="16" viewBox="0 0 21 16" fill="none" xmlns="http://www.w3.org/2000/svg">
<path d="M8.82077 9.02842L8.82077 9.02841C8.68788 8.89571 8.53289 8.85744 8.4321 8.84391C8.35204 8.83316 8.26153 8.83327 8.19723 8.83334C8.19206 8.83335 8.18705 8.83336 8.18224 8.83336C8.18705 8.83336 8.19206 8.83337 8.19724 8.83337C8.26154 8.83345 8.35208 8.83355 8.43216 8.8228C8.53299 8.80926 8.688 8.77096 8.8209 8.6382C8.88636 8.5728 8.92891 8.50201 8.95686 8.43491C8.98482 8.50203 9.0274 8.57288 9.09295 8.63832C9.22584 8.77098 9.3808 8.80923 9.48157 8.82276C9.54779 8.83164 9.62117 8.8331 9.68094 8.8333C9.6211 8.8335 9.54762 8.83496 9.4813 8.84387C9.38037 8.85744 9.22526 8.89581 9.09236 9.02874L9.09236 9.02875C9.02711 9.09401 8.98465 9.16461 8.95673 9.23158C8.92878 9.16453 8.88622 9.09378 8.82077 9.02842ZM8.92291 5.99501C8.8537 5.56616 8.72875 5.19232 8.49248 4.86005C8.30768 4.60017 8.08031 4.37331 7.81997 4.18899C7.41762 3.90414 6.95429 3.78151 6.40633 3.7233C5.87344 3.6667 5.20578 3.66671 4.36925 3.66671H4.34054H2.83726C2.83244 3.66671 2.82744 3.66671 2.82226 3.6667C2.75795 3.66663 2.66742 3.66652 2.58734 3.67727C2.48651 3.69081 2.33149 3.72911 2.1986 3.86187C2.06555 3.99479 2.02716 4.14997 2.01364 4.25111C2.00293 4.33125 2.00315 4.42181 2.0033 4.48594C2.00331 4.49112 2.00332 4.49612 2.00333 4.50094C2.00422 5.24352 2.01075 5.84658 2.0726 6.33743C2.1356 6.8374 2.26046 7.26516 2.52702 7.64002C2.71181 7.8999 2.93919 8.12676 3.19953 8.31108C3.60188 8.59594 4.0652 8.71856 4.61317 8.77677C5.12263 8.83089 5.75528 8.83326 6.5409 8.83336H6.17787H6.15101C5.15785 8.83335 4.37572 8.83335 3.75101 8.89446C3.11289 8.95688 2.58594 9.08683 2.12283 9.38122C1.691 9.65572 1.32457 10.0213 1.04935 10.4524C0.770723 10.8888 0.639091 11.3817 0.572488 11.9709C0.506775 12.5523 0.500715 13.2688 0.500012 14.1658C0.500008 14.1706 0.499998 14.1757 0.499988 14.1808C0.499862 14.245 0.499684 14.3356 0.510412 14.4157C0.523939 14.5168 0.562324 14.672 0.695451 14.8049C0.828343 14.9376 0.983329 14.9759 1.08412 14.9894C1.16418 15.0002 1.2547 15.0001 1.31899 15C1.32417 15 1.32917 15 1.33399 15H3.33835H3.36522C4.35837 15 5.1405 15 5.76521 14.9389C6.40333 14.8765 6.93029 14.7465 7.3934 14.4521C7.82523 14.1776 8.19166 13.812 8.46687 13.381C8.7455 12.9446 8.87713 12.4516 8.94374 11.8624C8.96701 11.6565 8.9828 11.4337 8.99352 11.1918C9.05122 11.4646 9.14716 11.714 9.31212 11.9406C9.44605 12.1245 9.60813 12.2862 9.79238 12.4198C10.1113 12.651 10.4756 12.7462 10.886 12.7906C11.281 12.8333 11.7733 12.8333 12.3757 12.8333H12.4039H13.4061C13.4109 12.8333 13.4159 12.8333 13.4211 12.8333C13.4854 12.8334 13.576 12.8335 13.6561 12.8227C13.7571 12.8091 13.9122 12.7708 14.0451 12.6378C14.178 12.5049 14.2164 12.3498 14.2298 12.2484C14.2405 12.1682 14.2401 12.0777 14.2399 12.0137C14.2399 12.0085 14.2399 12.0035 14.2399 11.9987C14.2386 11.4879 14.2319 11.0593 14.1834 10.7047C14.1337 10.3407 14.0356 10.0148 13.8253 9.72601C13.6914 9.54207 13.5293 9.38036 13.3451 9.24679C13.0261 9.01558 12.6619 8.92036 12.2514 8.87598C11.8768 8.83549 11.4148 8.8334 10.8543 8.8333H12.4039H12.4307C13.7361 8.83331 14.7519 8.83331 15.5614 8.75562C16.3839 8.67667 17.0454 8.5139 17.6239 8.15497C18.2112 7.79058 18.7066 7.29621 19.072 6.71003C19.4165 6.15721 19.5807 5.52863 19.6635 4.75611C19.7456 3.99122 19.7515 3.04186 19.7521 1.83443C19.7521 1.82961 19.7521 1.8246 19.7521 1.81942C19.7522 1.75507 19.7523 1.66445 19.7416 1.58432C19.7281 1.48347 19.6898 1.32803 19.5565 1.19498L19.2033 1.54884L19.5565 1.19498C19.4236 1.06232 19.2686 1.02407 19.1679 1.01055C19.0878 0.999806 18.9973 0.999913 18.9331 0.999988C18.9279 0.999994 18.9229 1 18.9181 1H16.2456H16.2188C14.9134 0.999996 13.8975 0.999994 13.0881 1.07769C12.2655 1.15663 11.604 1.3194 11.0256 1.67833L11.2857 2.09758L11.0256 1.67833C10.4383 2.04272 9.9428 2.53709 9.57749 3.12327C9.23298 3.67609 9.06879 4.30467 8.9859 5.07719C8.95586 5.3572 8.93602 5.66194 8.92291 5.99501Z" stroke="white" stroke-linecap="round" stroke-linejoin="round"/>
</svg>
