<svg width="17" height="16" viewBox="0 0 17 16" fill="none" xmlns="http://www.w3.org/2000/svg">
<g clip-path="url(#clip0_2861_246)">
<path fill-rule="evenodd" clip-rule="evenodd" d="M1.6825 0C1.02962 0 0.5 0.5135 0.5 1.14612V14.8542C0.5 15.4869 1.02969 16 1.6825 16H15.3175C15.9706 16 16.5 15.4869 16.5 14.8541V1.14612C16.5 0.5135 15.9706 0 15.3175 0H1.6825ZM5.36155 6.18673V13.39H2.9673V6.18673H5.36155ZM5.51936 3.95904C5.51936 4.65029 4.99967 5.20342 4.16492 5.20342L4.16473 5.20336H4.14923C3.34567 5.20336 2.82617 4.65023 2.82617 3.95898C2.82617 3.25204 3.36136 2.71436 4.1808 2.71436C4.99967 2.71436 5.50373 3.25204 5.51936 3.95904ZM9.08086 13.39H6.6868L6.68673 13.3902C6.68673 13.3902 6.71817 6.86273 6.68692 6.18698H9.08105V7.20657C9.3993 6.71585 9.9689 6.01786 11.2389 6.01786C12.814 6.01786 13.995 7.04742 13.995 9.25986V13.39H11.601V9.53685C11.601 8.56842 11.2544 7.90792 10.3882 7.90792C9.72667 7.90792 9.33273 8.35336 9.15973 8.78367C9.09648 8.93723 9.08086 9.15279 9.08086 9.36779V13.39Z" fill="white"/>
</g>
<defs>
<clipPath id="clip0_2861_246">
<rect width="16" height="16" fill="white" transform="translate(0.5)"/>
</clipPath>
</defs>
</svg>
