<svg width="15" height="13" viewBox="0 0 15 13" fill="none" xmlns="http://www.w3.org/2000/svg">
<path id="Mask Copy" fill-rule="evenodd" clip-rule="evenodd" d="M13.2329 2.05508C13.8686 1.64956 14.3564 1.00642 14.5854 0.2405C13.99 0.616778 13.3325 0.889055 12.6307 1.03639C12.0707 0.397944 11.2704 0 10.3846 0C8.68536 0 7.30857 1.46936 7.30857 3.28142C7.30857 3.53889 7.33393 3.7895 7.38679 4.02892C4.83 3.89169 2.56286 2.58664 1.04429 0.599806C0.779286 1.08622 0.627857 1.64956 0.627857 2.25044C0.627857 3.38867 1.17107 4.39328 1.99679 4.98261C1.4925 4.966 1.01786 4.8165 0.602143 4.57239V4.61283C0.602143 6.20317 1.66214 7.52989 3.07179 7.83033C2.81286 7.90725 2.54179 7.94589 2.26 7.94589C2.06214 7.94589 1.86821 7.92603 1.68179 7.88775C2.0725 9.191 3.20929 10.1411 4.55643 10.1664C3.5025 11.0471 2.17571 11.5711 0.734286 11.5711C0.486071 11.5711 0.240357 11.557 0 11.5259C1.36214 12.4565 2.97929 13 4.7175 13C10.3786 13 13.4725 7.99933 13.4725 3.66275C13.4725 3.52011 13.4707 3.37819 13.4646 3.23844C14.0657 2.7755 14.5889 2.197 15 1.53869C14.4479 1.79978 13.8546 1.97636 13.2329 2.05508Z" fill="white"/>
</svg>
