<svg width="16" height="16" viewBox="0 0 16 16" fill="none" xmlns="http://www.w3.org/2000/svg">
<path id="Clip 19" fill-rule="evenodd" clip-rule="evenodd" d="M8.33346 1.42383C10.3803 1.42383 10.6228 1.43174 11.4312 1.46985C12.1786 1.50508 12.5845 1.63415 12.8546 1.74237C13.2124 1.88582 13.4679 2.05731 13.7362 2.33379C14.0041 2.61063 14.1703 2.87416 14.3094 3.24339C14.4143 3.52203 14.5393 3.94088 14.5735 4.71206C14.6104 5.54616 14.6181 5.79639 14.6181 7.90825C14.6181 10.0201 14.6104 10.2703 14.5735 11.1044C14.5393 11.8756 14.4143 12.2945 14.3094 12.5731C14.1703 12.9423 14.0041 13.2059 13.7362 13.4827C13.4679 13.7592 13.2124 13.9307 12.8546 14.0741C12.5845 14.1827 12.1786 14.3114 11.4312 14.3467C10.6228 14.3848 10.3806 14.3927 8.33346 14.3927C6.28632 14.3927 6.04415 14.3848 5.23575 14.3467C4.48832 14.3114 4.08238 14.1827 3.81233 14.0741C3.45447 13.9307 3.19906 13.7592 2.93075 13.4827C2.6628 13.2059 2.49659 12.9423 2.35755 12.5731C2.25232 12.2945 2.12758 11.8756 2.09343 11.1044C2.05649 10.2703 2.04883 10.0201 2.04883 7.90825C2.04883 5.79639 2.05649 5.54616 2.09343 4.71206C2.12758 3.94088 2.25232 3.52203 2.35755 3.24339C2.49659 2.87416 2.6628 2.61063 2.93075 2.33379C3.19906 2.05731 3.45447 1.88582 3.81233 1.74237C4.08238 1.63415 4.48832 1.50508 5.23575 1.46985C6.04415 1.43174 6.28667 1.42383 8.33346 1.42383ZM8.33382 0C6.25185 0 5.99086 0.00898696 5.17305 0.0474512C4.35733 0.0859153 3.80017 0.219641 3.31234 0.415198C2.80814 0.617224 2.38059 0.887552 1.95444 1.32719C1.52829 1.7672 1.26625 2.20792 1.07043 2.72808C0.88087 3.23135 0.751248 3.80616 0.713964 4.6477C0.67668 5.49139 0.667969 5.76064 0.667969 7.90853C0.667969 10.0564 0.67668 10.3257 0.713964 11.1694C0.751248 12.0109 0.88087 12.5857 1.07043 13.089C1.26625 13.6091 1.52829 14.0499 1.95444 14.4895C2.38059 14.9295 2.80814 15.1998 3.31234 15.4019C3.80017 15.5974 4.35733 15.7311 5.17305 15.7696C5.99086 15.8081 6.25185 15.8171 8.33382 15.8171C10.4158 15.8171 10.6768 15.8081 11.4942 15.7696C12.3103 15.7311 12.8675 15.5974 13.3553 15.4019C13.8595 15.1998 14.2867 14.9295 14.7129 14.4895C15.1394 14.0499 15.4014 13.6091 15.5972 13.089C15.7868 12.5857 15.9164 12.0109 15.9537 11.1694C15.991 10.3257 15.9997 10.0564 15.9997 7.90853C15.9997 5.76064 15.991 5.49139 15.9537 4.6477C15.9164 3.80616 15.7868 3.23135 15.5972 2.72808C15.4014 2.20792 15.1394 1.7672 14.7129 1.32719C14.2867 0.887552 13.8595 0.617224 13.3553 0.415198C12.8675 0.219641 12.3103 0.0859153 11.4942 0.0474512C10.6768 0.00898696 10.4158 0 8.33382 0ZM8.34971 3.85938C6.174 3.85938 4.41016 5.67918 4.41016 7.92391C4.41016 10.1683 6.174 11.9881 8.34971 11.9881C10.5251 11.9881 12.2889 10.1683 12.2889 7.92391C12.2889 5.67918 10.5251 3.85938 8.34971 3.85938ZM8.34924 10.5628C6.93699 10.5628 5.79199 9.3818 5.79199 7.92466C5.79199 6.46752 6.93699 5.28613 8.34924 5.28613C9.76149 5.28613 10.9061 6.46752 10.9061 7.92466C10.9061 9.3818 9.76149 10.5628 8.34924 10.5628ZM13.3233 3.6718C13.3233 4.19189 12.9149 4.61314 12.4107 4.61314C11.9068 4.61314 11.498 4.19189 11.498 3.6718C11.498 3.15208 11.9068 2.73047 12.4107 2.73047C12.9149 2.73047 13.3233 3.15208 13.3233 3.6718Z" fill="white"/>
</svg>
