<svg width="124" height="124" viewBox="0 0 124 124" fill="none" xmlns="http://www.w3.org/2000/svg">
<path d="M106 52.5L102 56L92 56L89 58.5L76 58.5M94.5 48.5L92 48.5L86 54.5L76 54.5M99.5 62.5L76 62.5M118 66.5L116 68.5L96 68.5L94 66.5L76 66.5M106.5 75L104 72.5L94.5 72.5L92.5 70.5L76 70.5" stroke="white"/>
<circle cx="101.5" cy="62.5" r="2" transform="rotate(90 101.5 62.5)" stroke="white"/>
<circle cx="96.5" cy="48.5" r="2" transform="rotate(90 96.5 48.5)" stroke="white"/>
<circle cx="107.5" cy="51.5" r="2" transform="rotate(90 107.5 51.5)" stroke="white"/>
<path d="M119 67C117.895 67 117 66.1046 117 65C117 63.8954 117.895 63 119 63C120.105 63 121 63.8954 121 65C121 66.1046 120.105 67 119 67Z" stroke="white"/>
<path d="M107.5 78.5C106.395 78.5 105.5 77.6046 105.5 76.5C105.5 75.3954 106.395 74.5 107.5 74.5C108.605 74.5 109.5 75.3954 109.5 76.5C109.5 77.6046 108.605 78.5 107.5 78.5Z" stroke="white"/>
<path d="M18.5 70.5L22.5 67L32.5 67L35.5 64.5L48.5 64.5M30 74.5L32.5 74.5L38.5 68.5L48.5 68.5M25 60.5L48.5 60.5M6.5 56.5L8.5 54.5L28.5 54.5L30.5 56.5L48.5 56.5M18 48L20.5 50.5L30 50.5L32 52.5L48.5 52.5" stroke="white"/>
<circle cx="23" cy="60.5" r="2" transform="rotate(-90 23 60.5)" stroke="white"/>
<circle cx="28" cy="74.5" r="2" transform="rotate(-90 28 74.5)" stroke="white"/>
<circle cx="17" cy="71.5" r="2" transform="rotate(-90 17 71.5)" stroke="white"/>
<path d="M5.5 56C6.60457 56 7.5 56.8954 7.5 58C7.5 59.1046 6.60457 60 5.5 60C4.39543 60 3.5 59.1046 3.5 58C3.5 56.8954 4.39543 56 5.5 56Z" stroke="white"/>
<path d="M17 44.5C18.1046 44.5 19 45.3954 19 46.5C19 47.6046 18.1046 48.5 17 48.5C15.8954 48.5 15 47.6046 15 46.5C15 45.3954 15.8954 44.5 17 44.5Z" stroke="white"/>
<path fill-rule="evenodd" clip-rule="evenodd" d="M8 8H32.0833V11.1816H11.1816V28.7763H8V8ZM11.1816 95.2232H8V116H32.0833V112.817H11.1816V95.2232ZM91.9149 112.817V116H116V95.2232H112.817V112.817H91.9149ZM112.817 28.7763H116V8H32.0833L91.9149 8V11.1816H112.817V28.7763Z" fill="white" fill-opacity="0.15"/>
<rect x="47" y="47" width="30" height="30" rx="3" fill="url(#paint0_linear_2624_28)"/>
<mask id="path-15-inside-1_2624_28" fill="white">
<path fill-rule="evenodd" clip-rule="evenodd" d="M51 33H54V37H60V33H63V37H69V33H72V37H80.6C82.8402 37 83.9603 37 84.816 37.436C85.5686 37.8195 86.1805 38.4314 86.564 39.184C87 40.0397 87 41.1598 87 43.4V80.6C87 82.8402 87 83.9603 86.564 84.816C86.1805 85.5686 85.5686 86.1805 84.816 86.564C83.9603 87 82.8402 87 80.6 87H72V91H69V87H63V91H60V87H54V91H51V87H43.4C41.1598 87 40.0397 87 39.184 86.564C38.4314 86.1805 37.8195 85.5686 37.436 84.816C37 83.9603 37 82.8402 37 80.6V43.4C37 41.1598 37 40.0397 37.436 39.184C37.8195 38.4314 38.4314 37.8195 39.184 37.436C40.0397 37 41.1598 37 43.4 37H51V33ZM47.327 48.638C47 49.2798 47 50.1198 47 51.8V72.2C47 73.8802 47 74.7202 47.327 75.362C47.6146 75.9265 48.0735 76.3854 48.638 76.673C49.2798 77 50.1198 77 51.8 77H72.2C73.8802 77 74.7202 77 75.362 76.673C75.9265 76.3854 76.3854 75.9265 76.673 75.362C77 74.7202 77 73.8802 77 72.2V51.8C77 50.1198 77 49.2798 76.673 48.638C76.3854 48.0735 75.9265 47.6146 75.362 47.327C74.7202 47 73.8802 47 72.2 47H51.8C50.1198 47 49.2798 47 48.638 47.327C48.0735 47.6146 47.6146 48.0735 47.327 48.638Z"/>
</mask>
<path fill-rule="evenodd" clip-rule="evenodd" d="M51 33H54V37H60V33H63V37H69V33H72V37H80.6C82.8402 37 83.9603 37 84.816 37.436C85.5686 37.8195 86.1805 38.4314 86.564 39.184C87 40.0397 87 41.1598 87 43.4V80.6C87 82.8402 87 83.9603 86.564 84.816C86.1805 85.5686 85.5686 86.1805 84.816 86.564C83.9603 87 82.8402 87 80.6 87H72V91H69V87H63V91H60V87H54V91H51V87H43.4C41.1598 87 40.0397 87 39.184 86.564C38.4314 86.1805 37.8195 85.5686 37.436 84.816C37 83.9603 37 82.8402 37 80.6V43.4C37 41.1598 37 40.0397 37.436 39.184C37.8195 38.4314 38.4314 37.8195 39.184 37.436C40.0397 37 41.1598 37 43.4 37H51V33ZM47.327 48.638C47 49.2798 47 50.1198 47 51.8V72.2C47 73.8802 47 74.7202 47.327 75.362C47.6146 75.9265 48.0735 76.3854 48.638 76.673C49.2798 77 50.1198 77 51.8 77H72.2C73.8802 77 74.7202 77 75.362 76.673C75.9265 76.3854 76.3854 75.9265 76.673 75.362C77 74.7202 77 73.8802 77 72.2V51.8C77 50.1198 77 49.2798 76.673 48.638C76.3854 48.0735 75.9265 47.6146 75.362 47.327C74.7202 47 73.8802 47 72.2 47H51.8C50.1198 47 49.2798 47 48.638 47.327C48.0735 47.6146 47.6146 48.0735 47.327 48.638Z" fill="url(#paint1_linear_2624_28)"/>
<path d="M54 33H54.5V32.5H54V33ZM51 33V32.5H50.5V33H51ZM54 37H53.5V37.5H54V37ZM60 37V37.5H60.5V37H60ZM60 33V32.5H59.5V33H60ZM63 33H63.5V32.5H63V33ZM63 37H62.5V37.5H63V37ZM69 37V37.5H69.5V37H69ZM69 33V32.5H68.5V33H69ZM72 33H72.5V32.5H72V33ZM72 37H71.5V37.5H72V37ZM84.816 37.436L85.043 36.9905L84.816 37.436ZM86.564 39.184L86.1185 39.411V39.411L86.564 39.184ZM86.564 84.816L86.1185 84.589L86.564 84.816ZM84.816 86.564L84.589 86.1185L84.816 86.564ZM72 87V86.5H71.5V87H72ZM72 91V91.5H72.5V91H72ZM69 91H68.5V91.5H69V91ZM69 87H69.5V86.5H69V87ZM63 87V86.5H62.5V87H63ZM63 91V91.5H63.5V91H63ZM60 91H59.5V91.5H60V91ZM60 87H60.5V86.5H60V87ZM54 87V86.5H53.5V87H54ZM54 91V91.5H54.5V91H54ZM51 91H50.5V91.5H51V91ZM51 87H51.5V86.5H51V87ZM39.184 86.564L39.411 86.1185H39.411L39.184 86.564ZM37.436 84.816L36.9905 85.043L36.9905 85.043L37.436 84.816ZM37.436 39.184L36.9905 38.957L37.436 39.184ZM39.184 37.436L39.411 37.8815L39.184 37.436ZM51 37V37.5H51.5V37H51ZM47.327 48.638L47.7725 48.865L47.327 48.638ZM47.327 75.362L46.8815 75.589V75.589L47.327 75.362ZM48.638 76.673L48.411 77.1185L48.638 76.673ZM75.362 76.673L75.589 77.1185H75.589L75.362 76.673ZM76.673 75.362L77.1185 75.589V75.589L76.673 75.362ZM76.673 48.638L77.1185 48.411L76.673 48.638ZM75.362 47.327L75.589 46.8815H75.589L75.362 47.327ZM48.638 47.327L48.865 47.7725L48.638 47.327ZM54 32.5H51V33.5H54V32.5ZM54.5 37V33H53.5V37H54.5ZM60 36.5H54V37.5H60V36.5ZM59.5 33V37H60.5V33H59.5ZM63 32.5H60V33.5H63V32.5ZM63.5 37V33H62.5V37H63.5ZM69 36.5H63V37.5H69V36.5ZM68.5 33V37H69.5V33H68.5ZM72 32.5H69V33.5H72V32.5ZM72.5 37V33H71.5V37H72.5ZM80.6 36.5H72V37.5H80.6V36.5ZM85.043 36.9905C84.5329 36.7306 83.9658 36.6132 83.2679 36.5562C82.5758 36.4996 81.7119 36.5 80.6 36.5V37.5C81.7284 37.5 82.5446 37.5004 83.1865 37.5528C83.8226 37.6048 84.2434 37.7054 84.589 37.8815L85.043 36.9905ZM87.0095 38.957C86.5781 38.1103 85.8897 37.4219 85.043 36.9905L84.589 37.8815C85.2475 38.217 85.783 38.7525 86.1185 39.411L87.0095 38.957ZM87.5 43.4C87.5 42.2881 87.5004 41.4242 87.4438 40.7321C87.3868 40.0342 87.2694 39.4671 87.0095 38.957L86.1185 39.411C86.2946 39.7566 86.3952 40.1774 86.4472 40.8135C86.4996 41.4554 86.5 42.2716 86.5 43.4H87.5ZM87.5 80.6V43.4H86.5V80.6H87.5ZM87.0095 85.043C87.2694 84.5329 87.3868 83.9658 87.4438 83.2679C87.5004 82.5758 87.5 81.7119 87.5 80.6H86.5C86.5 81.7284 86.4996 82.5446 86.4472 83.1865C86.3952 83.8226 86.2946 84.2434 86.1185 84.589L87.0095 85.043ZM85.043 87.0095C85.8897 86.5781 86.5781 85.8897 87.0095 85.043L86.1185 84.589C85.783 85.2475 85.2475 85.783 84.589 86.1185L85.043 87.0095ZM80.6 87.5C81.7119 87.5 82.5758 87.5004 83.2679 87.4438C83.9658 87.3868 84.5329 87.2694 85.043 87.0095L84.589 86.1185C84.2434 86.2946 83.8226 86.3952 83.1865 86.4472C82.5446 86.4996 81.7284 86.5 80.6 86.5V87.5ZM72 87.5H80.6V86.5H72V87.5ZM72.5 91V87H71.5V91H72.5ZM69 91.5H72V90.5H69V91.5ZM68.5 87V91H69.5V87H68.5ZM63 87.5H69V86.5H63V87.5ZM62.5 87V91H63.5V87H62.5ZM63 90.5H60V91.5H63V90.5ZM60.5 91V87H59.5V91H60.5ZM54 87.5H60V86.5H54V87.5ZM53.5 87V91H54.5V87H53.5ZM54 90.5H51V91.5H54V90.5ZM51.5 91V87H50.5V91H51.5ZM43.4 87.5H51V86.5H43.4V87.5ZM38.957 87.0095C39.4671 87.2694 40.0342 87.3868 40.7321 87.4438C41.4242 87.5004 42.2881 87.5 43.4 87.5V86.5C42.2716 86.5 41.4554 86.4996 40.8135 86.4472C40.1774 86.3952 39.7566 86.2946 39.411 86.1185L38.957 87.0095ZM36.9905 85.043C37.4219 85.8897 38.1103 86.5781 38.957 87.0095L39.411 86.1185C38.7525 85.783 38.217 85.2475 37.8815 84.589L36.9905 85.043ZM36.5 80.6C36.5 81.7119 36.4996 82.5758 36.5562 83.2679C36.6132 83.9658 36.7306 84.5329 36.9905 85.043L37.8815 84.589C37.7054 84.2434 37.6048 83.8226 37.5528 83.1865C37.5004 82.5446 37.5 81.7284 37.5 80.6H36.5ZM36.5 43.4V80.6H37.5V43.4H36.5ZM36.9905 38.957C36.7306 39.4671 36.6132 40.0342 36.5562 40.7321C36.4996 41.4242 36.5 42.2881 36.5 43.4H37.5C37.5 42.2716 37.5004 41.4554 37.5528 40.8135C37.6048 40.1774 37.7054 39.7566 37.8815 39.411L36.9905 38.957ZM38.957 36.9905C38.1103 37.4219 37.4219 38.1103 36.9905 38.957L37.8815 39.411C38.217 38.7525 38.7525 38.217 39.411 37.8815L38.957 36.9905ZM43.4 36.5C42.2881 36.5 41.4242 36.4996 40.7321 36.5562C40.0342 36.6132 39.4671 36.7306 38.957 36.9905L39.411 37.8815C39.7566 37.7054 40.1774 37.6048 40.8135 37.5528C41.4554 37.5004 42.2716 37.5 43.4 37.5V36.5ZM51 36.5H43.4V37.5H51V36.5ZM50.5 33V37H51.5V33H50.5ZM47.5 51.8C47.5 50.9517 47.5004 50.3455 47.5392 49.8703C47.5776 49.401 47.6509 49.1037 47.7725 48.865L46.8815 48.411C46.6761 48.8141 46.5859 49.2577 46.5425 49.7889C46.4996 50.3142 46.5 50.9682 46.5 51.8H47.5ZM47.5 72.2V51.8H46.5V72.2H47.5ZM47.7725 75.135C47.6509 74.8963 47.5776 74.599 47.5392 74.1297C47.5004 73.6545 47.5 73.0483 47.5 72.2H46.5C46.5 73.0318 46.4996 73.6858 46.5425 74.2111C46.5859 74.7423 46.6761 75.1859 46.8815 75.589L47.7725 75.135ZM48.865 76.2275C48.3946 75.9878 48.0122 75.6054 47.7725 75.135L46.8815 75.589C47.217 76.2475 47.7525 76.783 48.411 77.1185L48.865 76.2275ZM51.8 76.5C50.9517 76.5 50.3455 76.4996 49.8703 76.4608C49.401 76.4224 49.1037 76.3491 48.865 76.2275L48.411 77.1185C48.8141 77.3239 49.2577 77.4141 49.7889 77.4575C50.3142 77.5004 50.9682 77.5 51.8 77.5V76.5ZM72.2 76.5H51.8V77.5H72.2V76.5ZM75.135 76.2275C74.8963 76.3491 74.599 76.4224 74.1297 76.4608C73.6545 76.4996 73.0483 76.5 72.2 76.5V77.5C73.0318 77.5 73.6858 77.5004 74.2111 77.4575C74.7423 77.4141 75.1859 77.3239 75.589 77.1185L75.135 76.2275ZM76.2275 75.135C75.9878 75.6054 75.6054 75.9878 75.135 76.2275L75.589 77.1185C76.2475 76.783 76.783 76.2475 77.1185 75.589L76.2275 75.135ZM76.5 72.2C76.5 73.0483 76.4996 73.6545 76.4608 74.1297C76.4224 74.599 76.3491 74.8963 76.2275 75.135L77.1185 75.589C77.3239 75.1859 77.4141 74.7423 77.4575 74.2111C77.5004 73.6858 77.5 73.0318 77.5 72.2H76.5ZM76.5 51.8V72.2H77.5V51.8H76.5ZM76.2275 48.865C76.3491 49.1037 76.4224 49.401 76.4608 49.8703C76.4996 50.3455 76.5 50.9517 76.5 51.8H77.5C77.5 50.9682 77.5004 50.3142 77.4575 49.7889C77.4141 49.2577 77.3239 48.8141 77.1185 48.411L76.2275 48.865ZM75.135 47.7725C75.6054 48.0122 75.9878 48.3946 76.2275 48.865L77.1185 48.411C76.783 47.7525 76.2475 47.217 75.589 46.8815L75.135 47.7725ZM72.2 47.5C73.0483 47.5 73.6545 47.5004 74.1297 47.5392C74.599 47.5776 74.8963 47.6509 75.135 47.7725L75.589 46.8815C75.1859 46.6761 74.7423 46.5859 74.2111 46.5425C73.6858 46.4996 73.0318 46.5 72.2 46.5V47.5ZM51.8 47.5H72.2V46.5H51.8V47.5ZM48.865 47.7725C49.1037 47.6509 49.401 47.5776 49.8703 47.5392C50.3455 47.5004 50.9517 47.5 51.8 47.5V46.5C50.9682 46.5 50.3142 46.4996 49.7889 46.5425C49.2577 46.5859 48.8141 46.6761 48.411 46.8815L48.865 47.7725ZM47.7725 48.865C48.0122 48.3946 48.3946 48.0122 48.865 47.7725L48.411 46.8815C47.7525 47.217 47.217 47.7525 46.8815 48.411L47.7725 48.865Z" fill="url(#paint2_linear_2624_28)" mask="url(#path-15-inside-1_2624_28)"/>
<defs>
<linearGradient id="paint0_linear_2624_28" x1="40" y1="72.5" x2="77.8679" y2="55.6955" gradientUnits="userSpaceOnUse">
<stop stop-color="#686A70"/>
<stop offset="1" stop-color="#07090F"/>
</linearGradient>
<linearGradient id="paint1_linear_2624_28" x1="29.5" y1="73" x2="91.6366" y2="66.517" gradientUnits="userSpaceOnUse">
<stop stop-color="#686A70"/>
<stop offset="1" stop-color="#07090F"/>
</linearGradient>
<linearGradient id="paint2_linear_2624_28" x1="35" y1="76.5" x2="89.3746" y2="66.5741" gradientUnits="userSpaceOnUse">
<stop stop-color="#92949A"/>
<stop offset="1" stop-color="#07090F"/>
</linearGradient>
</defs>
</svg>
