<svg width="124" height="124" viewBox="0 0 124 124" fill="none" xmlns="http://www.w3.org/2000/svg">
<path fill-rule="evenodd" clip-rule="evenodd" d="M8 8H32.0833V11.1816H11.1816V28.7763H8V8ZM11.1816 95.2232H8V116H32.0833V112.817H11.1816V95.2232ZM91.9149 112.817V116H116V95.2232H112.817V112.817H91.9149ZM112.817 28.7763H116V8H32.0833L91.9149 8V11.1816H112.817V28.7763Z" fill="white" fill-opacity="0.15"/>
<path d="M35.3534 69.1789C39.6938 79.236 43.8666 85.3673 45.4105 87.1759C50.7037 92.6013 56.2616 91.9399 60.4962 95.3804C63.8838 98.1329 65.0836 107.731 65.26 112.186C75.3613 112.76 98.8984 112.081 97.9457 105.305C96.7547 96.8361 97.9457 92.0722 97.9457 88.1023C97.9457 84.1324 98.3427 75.6632 97.9457 71.6933C97.5487 67.7234 96.49 63.7535 95.4314 59.5189C94.3727 55.2843 93.7111 52.2407 92.2554 50.6528C90.7998 49.0648 88.9472 45.7565 87.4916 43.5069C86.327 41.7072 83.1247 40.1104 81.669 39.537C80.6104 38.2137 78.4931 32.1265 76.6405 30.8032C75.1584 29.7446 71.5237 29.3917 69.8916 29.3476C69.6711 28.8183 68.9653 27.2038 67.9067 24.9807C66.5833 22.2017 64.4661 21.4078 62.6134 21.1431C61.1313 20.9314 57.1438 20.7901 55.3353 20.746C55.247 20.4373 54.7001 19.6345 53.218 18.8934C48.9834 16.7761 44.0872 17.3054 43.2932 17.3054C42.4992 17.3054 39.9849 17.8347 41.1759 20.746C42.1287 23.075 44.2195 23.6573 45.1458 23.6573C45.8075 24.5836 47.5278 25.3775 48.4541 26.3039C49.3804 27.2302 49.5127 30.6708 50.042 32.1264C50.5714 33.582 51.7623 34.9053 52.424 37.8166C53.0857 40.7279 51.7623 49.0647 51.233 51.182C50.7037 53.2993 50.042 56.3429 48.3218 58.1955C46.6015 60.0481 44.2195 59.6511 43.2932 59.1218C42.3708 58.5947 35.7398 53.2071 32.7442 50.7732L32.7067 50.7427C30.0285 48.5667 27.6161 47.6867 24.7049 47.9514C21.7936 48.216 20.1064 49.6923 20.2387 52.6036C20.371 55.5149 28.2075 61.9007 29.5309 62.8271C30.8542 63.7534 33.9823 66.0021 35.3534 69.1789Z" fill="url(#paint0_linear_2624_68)"/>
<path d="M55.3353 20.746C55.247 20.4373 54.7001 19.6345 53.218 18.8934C48.9834 16.7761 44.0872 17.3054 43.2932 17.3054C42.4992 17.3054 39.9849 17.8347 41.1759 20.746C42.1287 23.075 44.2195 23.6573 45.1458 23.6573C45.8075 24.5836 47.5278 25.3775 48.4541 26.3039C49.3804 27.2302 49.5127 30.6708 50.0421 32.1264C50.5714 33.582 51.7623 34.9053 52.424 37.8166C53.0857 40.7279 51.7623 49.0647 51.233 51.182C50.7037 53.2993 50.0421 56.3429 48.3218 58.1955C46.6015 60.0481 44.2195 59.6511 43.2932 59.1218C42.3669 58.5925 35.6842 53.1619 32.7067 50.7427C30.0285 48.5667 27.6161 47.6867 24.7049 47.9514C21.7936 48.216 20.1064 49.6923 20.2387 52.6036C20.371 55.5149 28.2075 61.9007 29.5309 62.8271C30.8542 63.7534 33.9823 66.0021 35.3534 69.1789C39.6938 79.236 43.8666 85.3673 45.4105 87.1759C50.7037 92.6013 56.2616 91.9399 60.4962 95.3804C63.8838 98.1329 65.0836 107.731 65.26 112.186C75.3613 112.76 98.8984 112.081 97.9457 105.305C96.7547 96.8361 97.9457 92.0722 97.9457 88.1023C97.9457 84.1324 98.3426 75.6632 97.9457 71.6933C97.5487 67.7234 96.49 63.7535 95.4314 59.5189C94.3727 55.2843 93.7111 52.2407 92.2554 50.6528C90.7998 49.0648 88.9472 45.7565 87.4916 43.5069C86.327 41.7072 83.1247 40.1104 81.669 39.537M55.3353 20.746C57.1438 20.7901 61.1313 20.9314 62.6134 21.1431C64.4661 21.4078 66.5833 22.2017 67.9067 24.9807C68.9653 27.2038 69.6711 28.8183 69.8916 29.3476M55.3353 20.746C56.0851 22.1134 57.6643 25.0336 57.9819 25.7747C58.3789 26.701 59.8345 28.8183 60.3638 29.3476C60.8931 29.8769 61.5548 31.3325 61.8195 31.8619C62.0841 32.3912 63.2751 34.1115 64.8631 35.1701M69.8916 29.3476C71.5237 29.3917 75.1584 29.7446 76.6405 30.8032C78.4931 32.1265 80.6104 38.2137 81.669 39.537M69.8916 29.3476C70.2886 30.2739 71.3472 32.497 72.4059 33.9791C73.7292 35.8318 76.5081 38.6107 77.6991 39.537M81.669 39.537C82.9923 41.125 85.8242 44.645 86.5652 46.0212" stroke="url(#paint1_linear_2624_68)" stroke-width="0.5"/>
<path d="M23.4023 51.1147L28.4268 55.9531L39.9643 63.5827L61.7368 85.3552M61.7368 85.3552V43.6711M61.7368 85.3552L95.2329 86.2857M61.7368 85.3552L70.6859 103.493M61.7368 43.6711L52.4323 23.5735L46.1053 20.0378L42.3835 19.4795M61.7368 43.6711L74.2048 45.532M74.2048 45.532L63.9699 25.2483L58.5733 23.9456M74.2048 45.532L84.998 49.0677M84.998 49.0677L76.0657 33.064L71.5996 31.2031M84.998 49.0677L90.9529 51.4869M90.9529 51.4869L86.8589 44.2294L84.2537 41.6242M90.9529 51.4869L95.2329 86.2857M95.2329 86.2857V101.236" stroke="url(#paint2_linear_2624_68)"/>
<circle cx="61.841" cy="43.6535" r="1.87861" fill="white"/>
<circle cx="61.841" cy="85.2673" r="1.87861" fill="#808285"/>
<circle cx="39.7048" cy="63.2282" r="1.87861" fill="white"/>
<circle cx="28.5212" cy="55.9499" r="1.87861" fill="white"/>
<circle cx="51.9538" cy="23.6403" r="1.87861" fill="white"/>
<circle cx="64.1735" cy="25.5192" r="1.87861" fill="white"/>
<circle cx="76.0827" cy="33.5964" r="1.87861" fill="white"/>
<circle cx="74.2038" cy="45.5324" r="1.87861" fill="white"/>
<circle cx="84.7922" cy="49.2897" r="1.87861" fill="white"/>
<circle cx="95.1844" cy="86.3839" r="1.11654" fill="#535559"/>
<circle cx="90.8646" cy="51.7411" r="1.24696" fill="white"/>
<defs>
<linearGradient id="paint0_linear_2624_68" x1="23.2668" y1="22.9831" x2="96.6747" y2="109.998" gradientUnits="userSpaceOnUse">
<stop stop-color="#686A70"/>
<stop offset="1" stop-color="#07090F"/>
</linearGradient>
<linearGradient id="paint1_linear_2624_68" x1="35.453" y1="17.2466" x2="95.1835" y2="108.017" gradientUnits="userSpaceOnUse">
<stop stop-color="#92949A"/>
<stop offset="1" stop-color="#07090F"/>
</linearGradient>
<linearGradient id="paint2_linear_2624_68" x1="67.8895" y1="44.3475" x2="91.1306" y2="103.22" gradientUnits="userSpaceOnUse">
<stop stop-color="white"/>
<stop offset="1" stop-color="white" stop-opacity="0"/>
</linearGradient>
</defs>
</svg>
