<svg width="124" height="124" viewBox="0 0 124 124" fill="none" xmlns="http://www.w3.org/2000/svg">
<path fill-rule="evenodd" clip-rule="evenodd" d="M8 8H32.0833V11.1816H11.1816V28.7763H8V8ZM11.1816 95.2232H8V116H32.0833V112.817H11.1816V95.2232ZM91.9149 112.817V116H116V95.2232H112.817V112.817H91.9149ZM112.817 28.7763H116V8H32.0833L91.9149 8V11.1816H112.817V28.7763Z" fill="white" fill-opacity="0.15"/>
<path d="M63.4108 89.8665L63.1786 89.8831V90.1159V98.1111V98.3611H63.4286H69.1429C69.7912 98.3611 70.3214 98.8933 70.3214 99.5556C70.3214 100.218 69.7912 100.75 69.1429 100.75H63.4286H60.5714H54.8571C54.2088 100.75 53.6786 100.218 53.6786 99.5556C53.6786 98.8933 54.2088 98.3611 54.8571 98.3611H60.5714H60.8214V98.1111V90.1159V89.8831L60.5892 89.8665C50.3425 89.1353 42.25 80.4974 42.25 69.9444V57.6667C42.25 57.0044 42.7803 56.4722 43.4286 56.4722C44.0769 56.4722 44.6071 57.0044 44.6071 57.6667V69.9444C44.6071 79.6528 52.3916 87.5278 62 87.5278C71.6084 87.5278 79.3929 79.6528 79.3929 69.9444V57.6667C79.3929 57.0044 79.9231 56.4722 80.5714 56.4722C81.2197 56.4722 81.75 57.0044 81.75 57.6667V69.9444C81.75 80.4974 73.6575 89.1353 63.4108 89.8665ZM49.3929 49C49.3929 41.9558 55.0399 36.25 62 36.25C68.9601 36.25 74.6071 41.9558 74.6071 49V69.2222C74.6071 76.2665 68.9601 81.9722 62 81.9722C55.0399 81.9722 49.3929 76.2665 49.3929 69.2222V49Z" fill="url(#paint0_linear_2624_114)" stroke="url(#paint1_linear_2624_114)" stroke-width="0.5"/>
<path d="M22.9834 55.9211C19.7153 52.3958 12.6188 55.2203 10.5898 55.9211V87.8671H116V56.7648C102.677 56.7648 107.108 53.9086 101.976 47.6896C96.4657 41.0123 91.4778 49.5502 89.4978 57.6015C87.9139 64.0426 85.0534 64.5834 83.8212 64.0486C79.1092 62.0039 79.4743 52.846 75.2738 52.846C69.4971 52.846 67.7672 72.3357 61.7296 73.8153C54.5118 75.5841 56.2867 45.8243 50.6476 41.351C48.0699 39.3062 45.2826 40.3583 39.8761 56.7648C34.2393 73.8703 26.6743 59.9025 22.9834 55.9211Z" fill="url(#paint2_radial_2624_114)"/>
<path d="M10.5898 55.9211C12.6188 55.2203 19.7153 52.3958 22.9834 55.9211C26.6743 59.9025 34.2393 73.8703 39.8761 56.7648C45.2826 40.3583 48.0699 39.3062 50.6476 41.351C56.2867 45.8243 54.5118 75.5841 61.7296 73.8153C67.7672 72.3357 69.4971 52.846 75.2738 52.846C79.4743 52.846 79.1092 62.0039 83.8212 64.0486C85.0534 64.5834 87.9139 64.0426 89.4978 57.6015C91.4778 49.5502 96.4657 41.0123 101.976 47.6896C107.108 53.9086 102.677 56.7648 116 56.7648" stroke="url(#paint3_linear_2624_114)"/>
<defs>
<linearGradient id="paint0_linear_2624_114" x1="-6.57143" y1="95.2222" x2="110.321" y2="57.9019" gradientUnits="userSpaceOnUse">
<stop stop-color="#686A70"/>
<stop offset="1" stop-color="#07090F"/>
</linearGradient>
<linearGradient id="paint1_linear_2624_114" x1="18.4803" y1="91.6545" x2="97.4901" y2="64.1117" gradientUnits="userSpaceOnUse">
<stop stop-color="#92949A"/>
<stop offset="1" stop-color="#07090F"/>
</linearGradient>
<radialGradient id="paint2_radial_2624_114" cx="0" cy="0" r="1" gradientUnits="userSpaceOnUse" gradientTransform="translate(67.0752 4.98689) rotate(89.2395) scale(64.1094 97.4952)">
<stop stop-color="white"/>
<stop offset="1" stop-color="white" stop-opacity="0"/>
</radialGradient>
<linearGradient id="paint3_linear_2624_114" x1="11.5655" y1="55.7684" x2="117.274" y2="55.7685" gradientUnits="userSpaceOnUse">
<stop stop-color="white" stop-opacity="0"/>
<stop offset="0.260417" stop-color="white"/>
<stop offset="0.688226" stop-color="white"/>
<stop offset="1" stop-color="white" stop-opacity="0"/>
</linearGradient>
</defs>
</svg>
